solid CATIA STL
  facet normal -6.791612e-001 -7.339892e-001  0.000000e+000
    outer loop
      vertex -1.840000e+001 -1.866606e+001  1.330000e+001
      vertex -1.839208e+001 -1.867339e+001  1.310122e+001
      vertex -1.840000e+001 -1.866606e+001  1.970000e+001
    endloop
  endfacet
  facet normal -4.523034e-002 -9.989766e-001  -0.000000e+000
    outer loop
      vertex -1.500000e+001 -2.000000e+001  1.080000e+001
      vertex -1.500000e+001 -2.000000e+001  3.840000e+001
      vertex -1.545185e+001 -1.997954e+001  1.080000e+001
    endloop
  endfacet
  facet normal -4.523034e-002 -9.989766e-001  0.000000e+000
    outer loop
      vertex -1.545185e+001 -1.997954e+001  1.080000e+001
      vertex -1.500000e+001 -2.000000e+001  3.840000e+001
      vertex -1.545185e+001 -1.997954e+001  3.840000e+001
    endloop
  endfacet
  facet normal -1.353243e-001 -9.908014e-001  -0.000000e+000
    outer loop
      vertex -1.545185e+001 -1.997954e+001  1.080000e+001
      vertex -1.545185e+001 -1.997954e+001  3.840000e+001
      vertex -1.590000e+001 -1.991833e+001  1.080000e+001
    endloop
  endfacet
  facet normal -1.353243e-001 -9.908014e-001  0.000000e+000
    outer loop
      vertex -1.590000e+001 -1.991833e+001  1.080000e+001
      vertex -1.545185e+001 -1.997954e+001  3.840000e+001
      vertex -1.590000e+001 -1.991833e+001  3.840000e+001
    endloop
  endfacet
  facet normal -1.959990e-001 -9.806041e-001  -0.000000e+000
    outer loop
      vertex -1.590000e+001 -1.991833e+001  1.080000e+001
      vertex -1.590000e+001 -1.991833e+001  3.840000e+001
      vertex -1.605970e+001 -1.988641e+001  1.080511e+001
    endloop
  endfacet
  facet normal -1.959990e-001 -9.806041e-001  0.000000e+000
    outer loop
      vertex -1.605970e+001 -1.988641e+001  1.080511e+001
      vertex -1.590000e+001 -1.991833e+001  3.840000e+001
      vertex -1.605970e+001 -1.988641e+001  3.839489e+001
    endloop
  endfacet
  facet normal -2.512361e-001 -9.679258e-001  -0.000000e+000
    outer loop
      vertex -1.605970e+001 -1.988641e+001  1.080511e+001
      vertex -1.605970e+001 -1.988641e+001  3.839489e+001
      vertex -1.645069e+001 -1.978493e+001  1.086141e+001
    endloop
  endfacet
  facet normal -2.512362e-001 -9.679258e-001  0.000000e+000
    outer loop
      vertex -1.645069e+001 -1.978493e+001  1.086141e+001
      vertex -1.605970e+001 -1.988641e+001  3.839489e+001
      vertex -1.645069e+001 -1.978493e+001  3.833859e+001
    endloop
  endfacet
  facet normal -3.273931e-001 -9.448882e-001  -0.000000e+000
    outer loop
      vertex -1.645069e+001 -1.978493e+001  1.086141e+001
      vertex -1.645069e+001 -1.978493e+001  3.833859e+001
      vertex -1.682074e+001 -1.965671e+001  1.097573e+001
    endloop
  endfacet
  facet normal -3.273931e-001 -9.448882e-001  0.000000e+000
    outer loop
      vertex -1.682074e+001 -1.965671e+001  1.097573e+001
      vertex -1.645069e+001 -1.978493e+001  3.833859e+001
      vertex -1.682074e+001 -1.965671e+001  3.822427e+001
    endloop
  endfacet
  facet normal -3.985947e-001 -9.171272e-001  -0.000000e+000
    outer loop
      vertex -1.682074e+001 -1.965671e+001  1.097573e+001
      vertex -1.682074e+001 -1.965671e+001  3.822427e+001
      vertex -1.716238e+001 -1.950823e+001  1.114213e+001
    endloop
  endfacet
  facet normal -3.985946e-001 -9.171271e-001  0.000000e+000
    outer loop
      vertex -1.716238e+001 -1.950823e+001  1.114213e+001
      vertex -1.682074e+001 -1.965671e+001  3.822427e+001
      vertex -1.716238e+001 -1.950823e+001  3.805787e+001
    endloop
  endfacet
  facet normal -4.612716e-001 -8.872590e-001  -0.000000e+000
    outer loop
      vertex -1.716238e+001 -1.950823e+001  1.114213e+001
      vertex -1.716238e+001 -1.950823e+001  3.805787e+001
      vertex -1.744795e+001 -1.935977e+001  1.133687e+001
    endloop
  endfacet
  facet normal -4.612715e-001 -8.872589e-001  0.000000e+000
    outer loop
      vertex -1.744795e+001 -1.935977e+001  1.133687e+001
      vertex -1.716238e+001 -1.950823e+001  3.805787e+001
      vertex -1.744795e+001 -1.935977e+001  3.786312e+001
    endloop
  endfacet
  facet normal -5.152782e-001 -8.570230e-001  -0.000000e+000
    outer loop
      vertex -1.744795e+001 -1.935977e+001  1.133687e+001
      vertex -1.744795e+001 -1.935977e+001  3.786312e+001
      vertex -1.770258e+001 -1.920667e+001  1.156775e+001
    endloop
  endfacet
  facet normal -5.152782e-001 -8.570229e-001  0.000000e+000
    outer loop
      vertex -1.770258e+001 -1.920667e+001  1.156775e+001
      vertex -1.744795e+001 -1.935977e+001  3.786312e+001
      vertex -1.770258e+001 -1.920667e+001  3.763225e+001
    endloop
  endfacet
  facet normal -5.628361e-001 -8.265685e-001  -0.000000e+000
    outer loop
      vertex -1.770258e+001 -1.920667e+001  1.156775e+001
      vertex -1.770258e+001 -1.920667e+001  3.763225e+001
      vertex -1.792374e+001 -1.905607e+001  1.183219e+001
    endloop
  endfacet
  facet normal -5.628362e-001 -8.265685e-001  0.000000e+000
    outer loop
      vertex -1.792374e+001 -1.905607e+001  1.183219e+001
      vertex -1.770258e+001 -1.920667e+001  3.763225e+001
      vertex -1.792374e+001 -1.905607e+001  3.736781e+001
    endloop
  endfacet
  facet normal -6.051298e-001 -7.961268e-001  -0.000000e+000
    outer loop
      vertex -1.792374e+001 -1.905607e+001  1.183219e+001
      vertex -1.792374e+001 -1.905607e+001  3.736781e+001
      vertex -1.812554e+001 -1.890269e+001  1.216115e+001
    endloop
  endfacet
  facet normal -6.051298e-001 -7.961268e-001  0.000000e+000
    outer loop
      vertex -1.812554e+001 -1.890269e+001  1.216115e+001
      vertex -1.792374e+001 -1.905607e+001  3.736781e+001
      vertex -1.812554e+001 -1.890269e+001  3.703885e+001
    endloop
  endfacet
  facet normal -6.403952e-001 -7.680455e-001  -0.000000e+000
    outer loop
      vertex -1.812554e+001 -1.890269e+001  1.216115e+001
      vertex -1.812554e+001 -1.890269e+001  3.703885e+001
      vertex -1.827727e+001 -1.877618e+001  1.252630e+001
    endloop
  endfacet
  facet normal -6.403952e-001 -7.680455e-001  0.000000e+000
    outer loop
      vertex -1.827727e+001 -1.877618e+001  1.252630e+001
      vertex -1.812554e+001 -1.890269e+001  3.703885e+001
      vertex -1.827727e+001 -1.877618e+001  3.667370e+001
    endloop
  endfacet
  facet normal -6.607423e-001 -7.506128e-001  -0.000000e+000
    outer loop
      vertex -1.827727e+001 -1.877618e+001  1.252630e+001
      vertex -1.827727e+001 -1.877618e+001  3.667370e+001
      vertex -1.833001e+001 -1.872975e+001  1.271259e+001
    endloop
  endfacet
  facet normal -6.607423e-001 -7.506129e-001  0.000000e+000
    outer loop
      vertex -1.833001e+001 -1.872975e+001  1.271259e+001
      vertex -1.827727e+001 -1.877618e+001  3.667370e+001
      vertex -1.833001e+001 -1.872975e+001  3.648741e+001
    endloop
  endfacet
  facet normal -6.698776e-001 -7.424716e-001  -0.000000e+000
    outer loop
      vertex -1.833001e+001 -1.872975e+001  1.271259e+001
      vertex -1.833001e+001 -1.872975e+001  3.648741e+001
      vertex -1.836856e+001 -1.869497e+001  1.290476e+001
    endloop
  endfacet
  facet normal -6.698776e-001 -7.424715e-001  0.000000e+000
    outer loop
      vertex -1.836856e+001 -1.869497e+001  1.290476e+001
      vertex -1.833001e+001 -1.872975e+001  3.648741e+001
      vertex -1.836856e+001 -1.869497e+001  3.629524e+001
    endloop
  endfacet
  facet normal -6.760762e-001 -7.368317e-001  -0.000000e+000
    outer loop
      vertex -1.836856e+001 -1.869497e+001  1.290476e+001
      vertex -1.836856e+001 -1.869497e+001  3.629524e+001
      vertex -1.839208e+001 -1.867339e+001  1.310122e+001
    endloop
  endfacet
  facet normal -6.760762e-001 -7.368317e-001  0.000000e+000
    outer loop
      vertex -1.839208e+001 -1.867339e+001  1.310122e+001
      vertex -1.836856e+001 -1.869497e+001  3.629524e+001
      vertex -1.839208e+001 -1.867339e+001  3.609878e+001
    endloop
  endfacet
  facet normal -6.791611e-001 -7.339892e-001  -0.000000e+000
    outer loop
      vertex -1.839208e+001 -1.867339e+001  1.310122e+001
      vertex -1.839208e+001 -1.867339e+001  3.609878e+001
      vertex -1.840000e+001 -1.866606e+001  1.970000e+001
    endloop
  endfacet
  facet normal -6.791611e-001 -7.339892e-001  0.000000e+000
    outer loop
      vertex -1.840000e+001 -1.866606e+001  1.970000e+001
      vertex -1.839208e+001 -1.867339e+001  3.609878e+001
      vertex -1.840000e+001 -1.866606e+001  3.590000e+001
    endloop
  endfacet
  facet normal  0.000000e+000  0.000000e+000  1.000000e+000
    outer loop
      vertex  3.170000e+001 -2.000000e+001  3.840000e+001
      vertex  3.170000e+001 -1.850000e+001  3.840000e+001
      vertex -1.500000e+001 -2.000000e+001  3.840000e+001
    endloop
  endfacet
  facet normal  0.000000e+000  -0.000000e+000  1.000000e+000
    outer loop
      vertex -1.500000e+001 -2.000000e+001  3.840000e+001
      vertex  3.170000e+001 -1.850000e+001  3.840000e+001
      vertex -1.590000e+001 -1.850000e+001  3.840000e+001
    endloop
  endfacet
  facet normal  0.000000e+000  0.000000e+000  1.000000e+000
    outer loop
      vertex -1.500000e+001 -2.000000e+001  3.840000e+001
      vertex -1.590000e+001 -1.850000e+001  3.840000e+001
      vertex -1.545185e+001 -1.997954e+001  3.840000e+001
    endloop
  endfacet
  facet normal  0.000000e+000  0.000000e+000  1.000000e+000
    outer loop
      vertex -1.545185e+001 -1.997954e+001  3.840000e+001
      vertex -1.590000e+001 -1.850000e+001  3.840000e+001
      vertex -1.590000e+001 -1.991833e+001  3.840000e+001
    endloop
  endfacet
  facet normal -9.254505e-001 -1.754095e-002  3.784621e-001
    outer loop
      vertex -1.824923e+001 -1.850000e+001  3.675505e+001
      vertex -1.827727e+001 -1.877618e+001  3.667370e+001
      vertex -1.812554e+001 -1.890269e+001  3.703885e+001
    endloop
  endfacet
  facet normal -9.061369e-001  1.945352e-002  4.225369e-001
    outer loop
      vertex -1.824923e+001 -1.850000e+001  3.675505e+001
      vertex -1.812554e+001 -1.890269e+001  3.703885e+001
      vertex -1.806506e+001 -1.850000e+001  3.715000e+001
    endloop
  endfacet
  facet normal -8.553079e-001 -1.450740e-002  5.179169e-001
    outer loop
      vertex -1.806506e+001 -1.850000e+001  3.715000e+001
      vertex -1.812554e+001 -1.890269e+001  3.703885e+001
      vertex -1.792374e+001 -1.905607e+001  3.736781e+001
    endloop
  endfacet
  facet normal -8.190401e-001  1.648048e-002  5.734996e-001
    outer loop
      vertex -1.806506e+001 -1.850000e+001  3.715000e+001
      vertex -1.792374e+001 -1.905607e+001  3.736781e+001
      vertex -1.781511e+001 -1.850000e+001  3.750697e+001
    endloop
  endfacet
  facet normal -7.696838e-001 -9.392817e-003  6.383561e-001
    outer loop
      vertex -1.792374e+001 -1.905607e+001  3.736781e+001
      vertex -1.770258e+001 -1.920667e+001  3.763225e+001
      vertex -1.781511e+001 -1.850000e+001  3.750697e+001
    endloop
  endfacet
  facet normal -7.070470e-001  1.276013e-002  7.070514e-001
    outer loop
      vertex -1.750697e+001 -1.850000e+001  3.781511e+001
      vertex -1.781511e+001 -1.850000e+001  3.750697e+001
      vertex -1.770258e+001 -1.920667e+001  3.763225e+001
    endloop
  endfacet
  facet normal -6.733134e-001 -4.932775e-003  7.393407e-001
    outer loop
      vertex -1.770258e+001 -1.920667e+001  3.763225e+001
      vertex -1.744795e+001 -1.935977e+001  3.786312e+001
      vertex -1.750697e+001 -1.850000e+001  3.781511e+001
    endloop
  endfacet
  facet normal -4.226179e-001  4.441879e-003  9.062970e-001
    outer loop
      vertex -1.715000e+001 -1.850000e+001  3.806506e+001
      vertex -1.682074e+001 -1.965671e+001  3.822427e+001
      vertex -1.675505e+001 -1.850000e+001  3.824923e+001
    endloop
  endfacet
  facet normal -2.963637e-001 -3.780808e-003  9.550677e-001
    outer loop
      vertex -1.675505e+001 -1.850000e+001  3.824923e+001
      vertex -1.682074e+001 -1.965671e+001  3.822427e+001
      vertex -1.645069e+001 -1.978493e+001  3.833859e+001
    endloop
  endfacet
  facet normal -2.588087e-001  5.868995e-003  9.659107e-001
    outer loop
      vertex -1.675505e+001 -1.850000e+001  3.824923e+001
      vertex -1.645069e+001 -1.978493e+001  3.833859e+001
      vertex -1.633412e+001 -1.850000e+001  3.836202e+001
    endloop
  endfacet
  facet normal -9.961946e-001  0.000000e+000  8.715675e-002
    outer loop
      vertex -1.840000e+001 -1.850000e+001  3.590000e+001
      vertex -1.840000e+001 -1.866606e+001  3.590000e+001
      vertex -1.836202e+001 -1.850000e+001  3.633412e+001
    endloop
  endfacet
  facet normal -9.926531e-001  1.128337e-001  4.368527e-002
    outer loop
      vertex -1.836202e+001 -1.850000e+001  3.633412e+001
      vertex -1.840000e+001 -1.866606e+001  3.590000e+001
      vertex -1.839208e+001 -1.867339e+001  3.609878e+001
    endloop
  endfacet
  facet normal -9.927406e-001  9.390515e-003  1.199077e-001
    outer loop
      vertex -1.836202e+001 -1.850000e+001  3.633412e+001
      vertex -1.839208e+001 -1.867339e+001  3.609878e+001
      vertex -1.836856e+001 -1.869497e+001  3.629524e+001
    endloop
  endfacet
  facet normal -9.609836e-001  1.620907e-002  2.761300e-001
    outer loop
      vertex -1.827727e+001 -1.877618e+001  3.667370e+001
      vertex -1.824923e+001 -1.850000e+001  3.675505e+001
      vertex -1.833001e+001 -1.872975e+001  3.648741e+001
    endloop
  endfacet
  facet normal -9.652252e-001  3.808608e-002  2.586306e-001
    outer loop
      vertex -1.833001e+001 -1.872975e+001  3.648741e+001
      vertex -1.824923e+001 -1.850000e+001  3.675505e+001
      vertex -1.836202e+001 -1.850000e+001  3.633412e+001
    endloop
  endfacet
  facet normal -9.806626e-001 -6.110631e-003  1.956106e-001
    outer loop
      vertex -1.833001e+001 -1.872975e+001  3.648741e+001
      vertex -1.836202e+001 -1.850000e+001  3.633412e+001
      vertex -1.836856e+001 -1.869497e+001  3.629524e+001
    endloop
  endfacet
  facet normal -5.735667e-001  6.371079e-003  8.191341e-001
    outer loop
      vertex -1.750697e+001 -1.850000e+001  3.781511e+001
      vertex -1.744795e+001 -1.935977e+001  3.786312e+001
      vertex -1.715000e+001 -1.850000e+001  3.806506e+001
    endloop
  endfacet
  facet normal -5.630521e-001  1.015789e-003  8.264209e-001
    outer loop
      vertex -1.715000e+001 -1.850000e+001  3.806506e+001
      vertex -1.744795e+001 -1.935977e+001  3.786312e+001
      vertex -1.716238e+001 -1.950823e+001  3.805787e+001
    endloop
  endfacet
  facet normal -4.382525e-001 -1.033308e-003  8.988514e-001
    outer loop
      vertex -1.715000e+001 -1.850000e+001  3.806506e+001
      vertex -1.716238e+001 -1.950823e+001  3.805787e+001
      vertex -1.682074e+001 -1.965671e+001  3.822427e+001
    endloop
  endfacet
  facet normal -3.196856e-002  0.000000e+000  9.994889e-001
    outer loop
      vertex -1.590000e+001 -1.991833e+001  3.840000e+001
      vertex -1.590000e+001 -1.850000e+001  3.840000e+001
      vertex -1.605970e+001 -1.988641e+001  3.839489e+001
    endloop
  endfacet
  facet normal -8.715931e-002  6.369462e-003  9.961740e-001
    outer loop
      vertex -1.605970e+001 -1.988641e+001  3.839489e+001
      vertex -1.590000e+001 -1.850000e+001  3.840000e+001
      vertex -1.633412e+001 -1.850000e+001  3.836202e+001
    endloop
  endfacet
  facet normal -1.437946e-001 -4.996796e-003  9.895949e-001
    outer loop
      vertex -1.605970e+001 -1.988641e+001  3.839489e+001
      vertex -1.633412e+001 -1.850000e+001  3.836202e+001
      vertex -1.645069e+001 -1.978493e+001  3.833859e+001
    endloop
  endfacet
  facet normal -1.000000e+000  0.000000e+000  0.000000e+000
    outer loop
      vertex -1.840000e+001 -1.850000e+001  1.970000e+001
      vertex -1.840000e+001 -1.866606e+001  1.970000e+001
      vertex -1.840000e+001 -1.850000e+001  3.590000e+001
    endloop
  endfacet
  facet normal -1.000000e+000  -0.000000e+000  0.000000e+000
    outer loop
      vertex -1.840000e+001 -1.850000e+001  3.590000e+001
      vertex -1.840000e+001 -1.866606e+001  1.970000e+001
      vertex -1.840000e+001 -1.866606e+001  3.590000e+001
    endloop
  endfacet
  facet normal -9.999999e-001  0.000000e+000  0.000000e+000
    outer loop
      vertex -1.840000e+001 -1.850000e+001  1.330000e+001
      vertex -1.840000e+001 -1.866606e+001  1.330000e+001
      vertex -1.840000e+001 -1.850000e+001  1.970000e+001
    endloop
  endfacet
  facet normal -9.999999e-001  -0.000000e+000  0.000000e+000
    outer loop
      vertex -1.840000e+001 -1.850000e+001  1.970000e+001
      vertex -1.840000e+001 -1.866606e+001  1.330000e+001
      vertex -1.840000e+001 -1.866606e+001  1.970000e+001
    endloop
  endfacet
  facet normal -2.588148e-001  5.870298e-003 -9.659092e-001
    outer loop
      vertex -1.675505e+001 -1.850000e+001  1.095077e+001
      vertex -1.633412e+001 -1.850000e+001  1.083798e+001
      vertex -1.645069e+001 -1.978493e+001  1.086141e+001
    endloop
  endfacet
  facet normal -2.963652e-001 -3.778351e-003 -9.550673e-001
    outer loop
      vertex -1.645069e+001 -1.978493e+001  1.086141e+001
      vertex -1.682074e+001 -1.965671e+001  1.097573e+001
      vertex -1.675505e+001 -1.850000e+001  1.095077e+001
    endloop
  endfacet
  facet normal -4.226144e-001  4.443881e-003 -9.062987e-001
    outer loop
      vertex -1.715000e+001 -1.850000e+001  1.113494e+001
      vertex -1.675505e+001 -1.850000e+001  1.095077e+001
      vertex -1.682074e+001 -1.965671e+001  1.097573e+001
    endloop
  endfacet
  facet normal -4.382522e-001 -1.032463e-003 -8.988515e-001
    outer loop
      vertex -1.682074e+001 -1.965671e+001  1.097573e+001
      vertex -1.716238e+001 -1.950823e+001  1.114213e+001
      vertex -1.715000e+001 -1.850000e+001  1.113494e+001
    endloop
  endfacet
  facet normal -7.070503e-001  1.276094e-002 -7.070482e-001
    outer loop
      vertex -1.750697e+001 -1.850000e+001  1.138489e+001
      vertex -1.770258e+001 -1.920667e+001  1.156775e+001
      vertex -1.781511e+001 -1.850000e+001  1.169303e+001
    endloop
  endfacet
  facet normal -7.696820e-001 -9.390426e-003 -6.383584e-001
    outer loop
      vertex -1.781511e+001 -1.850000e+001  1.169303e+001
      vertex -1.770258e+001 -1.920667e+001  1.156775e+001
      vertex -1.792374e+001 -1.905607e+001  1.183219e+001
    endloop
  endfacet
  facet normal -8.190408e-001  1.648382e-002 -5.734985e-001
    outer loop
      vertex -1.781511e+001 -1.850000e+001  1.169303e+001
      vertex -1.792374e+001 -1.905607e+001  1.183219e+001
      vertex -1.806506e+001 -1.850000e+001  1.205000e+001
    endloop
  endfacet
  facet normal -8.553104e-001 -1.450597e-002 -5.179130e-001
    outer loop
      vertex -1.792374e+001 -1.905607e+001  1.183219e+001
      vertex -1.812554e+001 -1.890269e+001  1.216115e+001
      vertex -1.806506e+001 -1.850000e+001  1.205000e+001
    endloop
  endfacet
  facet normal -9.061366e-001  1.945323e-002 -4.225378e-001
    outer loop
      vertex -1.824923e+001 -1.850000e+001  1.244495e+001
      vertex -1.806506e+001 -1.850000e+001  1.205000e+001
      vertex -1.812554e+001 -1.890269e+001  1.216115e+001
    endloop
  endfacet
  facet normal -9.806629e-001 -6.110260e-003 -1.956088e-001
    outer loop
      vertex -1.833001e+001 -1.872975e+001  1.271259e+001
      vertex -1.836856e+001 -1.869497e+001  1.290476e+001
      vertex -1.836202e+001 -1.850000e+001  1.286588e+001
    endloop
  endfacet
  facet normal -8.715457e-002  0.000000e+000 -9.961948e-001
    outer loop
      vertex -1.590000e+001 -1.850000e+001  1.080000e+001
      vertex -1.590000e+001 -1.991833e+001  1.080000e+001
      vertex -1.633412e+001 -1.850000e+001  1.083798e+001
    endloop
  endfacet
  facet normal -2.833937e-002  1.808878e-002 -9.994346e-001
    outer loop
      vertex -1.633412e+001 -1.850000e+001  1.083798e+001
      vertex -1.590000e+001 -1.991833e+001  1.080000e+001
      vertex -1.605970e+001 -1.988641e+001  1.080511e+001
    endloop
  endfacet
  facet normal -1.437898e-001 -4.996509e-003 -9.895957e-001
    outer loop
      vertex -1.633412e+001 -1.850000e+001  1.083798e+001
      vertex -1.605970e+001 -1.988641e+001  1.080511e+001
      vertex -1.645069e+001 -1.978493e+001  1.086141e+001
    endloop
  endfacet
  facet normal -5.735750e-001  1.197630e-003 -8.191522e-001
    outer loop
      vertex -1.715000e+001 -1.850000e+001  1.113494e+001
      vertex -1.716238e+001 -1.950823e+001  1.114213e+001
      vertex -1.750697e+001 -1.850000e+001  1.138489e+001
    endloop
  endfacet
  facet normal -5.606436e-001  7.752720e-003 -8.280209e-001
    outer loop
      vertex -1.750697e+001 -1.850000e+001  1.138489e+001
      vertex -1.716238e+001 -1.950823e+001  1.114213e+001
      vertex -1.744795e+001 -1.935977e+001  1.133687e+001
    endloop
  endfacet
  facet normal -6.733125e-001 -4.934294e-003 -7.393416e-001
    outer loop
      vertex -1.750697e+001 -1.850000e+001  1.138489e+001
      vertex -1.744795e+001 -1.935977e+001  1.133687e+001
      vertex -1.770258e+001 -1.920667e+001  1.156775e+001
    endloop
  endfacet
  facet normal -9.568082e-001  5.691692e-002 -2.850937e-001
    outer loop
      vertex -1.833001e+001 -1.872975e+001  1.271259e+001
      vertex -1.836202e+001 -1.850000e+001  1.286588e+001
      vertex -1.827727e+001 -1.877618e+001  1.252630e+001
    endloop
  endfacet
  facet normal -9.656965e-001  2.180599e-002 -2.587563e-001
    outer loop
      vertex -1.827727e+001 -1.877618e+001  1.252630e+001
      vertex -1.836202e+001 -1.850000e+001  1.286588e+001
      vertex -1.824923e+001 -1.850000e+001  1.244495e+001
    endloop
  endfacet
  facet normal -9.254498e-001 -1.754028e-002 -3.784640e-001
    outer loop
      vertex -1.827727e+001 -1.877618e+001  1.252630e+001
      vertex -1.824923e+001 -1.850000e+001  1.244495e+001
      vertex -1.812554e+001 -1.890269e+001  1.216115e+001
    endloop
  endfacet
  facet normal -9.960666e-001  1.603523e-002 -8.714554e-002
    outer loop
      vertex -1.836202e+001 -1.850000e+001  1.286588e+001
      vertex -1.836856e+001 -1.869497e+001  1.290476e+001
      vertex -1.840000e+001 -1.850000e+001  1.330000e+001
    endloop
  endfacet
  facet normal -9.861814e-001  1.033877e-001 -1.294499e-001
    outer loop
      vertex -1.840000e+001 -1.850000e+001  1.330000e+001
      vertex -1.836856e+001 -1.869497e+001  1.290476e+001
      vertex -1.839208e+001 -1.867339e+001  1.310122e+001
    endloop
  endfacet
  facet normal -9.992081e-001  0.000000e+000 -3.978884e-002
    outer loop
      vertex -1.840000e+001 -1.850000e+001  1.330000e+001
      vertex -1.839208e+001 -1.867339e+001  1.310122e+001
      vertex -1.840000e+001 -1.866606e+001  1.330000e+001
    endloop
  endfacet
  facet normal  -0.000000e+000  0.000000e+000 -1.000000e+000
    outer loop
      vertex -1.590000e+001 -1.850000e+001  1.080000e+001
      vertex -1.500000e+001 -1.850000e+001  1.080000e+001
      vertex -1.590000e+001 -1.991833e+001  1.080000e+001
    endloop
  endfacet
  facet normal  0.000000e+000  0.000000e+000 -1.000000e+000
    outer loop
      vertex -1.590000e+001 -1.991833e+001  1.080000e+001
      vertex -1.500000e+001 -1.850000e+001  1.080000e+001
      vertex -1.500000e+001 -2.000000e+001  1.080000e+001
    endloop
  endfacet
  facet normal  0.000000e+000  0.000000e+000 -1.000000e+000
    outer loop
      vertex -1.590000e+001 -1.991833e+001  1.080000e+001
      vertex -1.500000e+001 -2.000000e+001  1.080000e+001
      vertex -1.545185e+001 -1.997954e+001  1.080000e+001
    endloop
  endfacet
  facet normal  -0.000000e+000 -1.000000e+000  0.000000e+000
    outer loop
      vertex  3.020000e+001 -2.000000e+001  3.640000e+001
      vertex  3.520000e+001 -2.000000e+001  3.781068e+001
      vertex  3.331223e+001 -2.000000e+001  3.781068e+001
    endloop
  endfacet
  facet normal  -0.000000e+000 -1.000000e+000  0.000000e+000
    outer loop
      vertex  3.020000e+001 -2.000000e+001  3.640000e+001
      vertex  3.331223e+001 -2.000000e+001  3.781068e+001
      vertex  3.295446e+001 -2.000000e+001  3.806248e+001
    endloop
  endfacet
  facet normal  -0.000000e+000 -9.999999e-001  0.000000e+000
    outer loop
      vertex  3.020000e+001 -2.000000e+001  3.640000e+001
      vertex  3.295446e+001 -2.000000e+001  3.806248e+001
      vertex  3.255828e+001 -2.000000e+001  3.824805e+001
    endloop
  endfacet
  facet normal  -0.000000e+000 -1.000000e+000  0.000000e+000
    outer loop
      vertex  3.020000e+001 -2.000000e+001  3.640000e+001
      vertex  3.255828e+001 -2.000000e+001  3.824805e+001
      vertex  3.213581e+001 -2.000000e+001  3.836172e+001
    endloop
  endfacet
  facet normal  -0.000000e+000 -1.000000e+000  0.000000e+000
    outer loop
      vertex  3.020000e+001 -2.000000e+001  3.640000e+001
      vertex  3.213581e+001 -2.000000e+001  3.836172e+001
      vertex  3.170000e+001 -2.000000e+001  3.840000e+001
    endloop
  endfacet
  facet normal  -0.000000e+000 -1.000000e+000  0.000000e+000
    outer loop
      vertex  3.020000e+001 -2.000000e+001  3.640000e+001
      vertex  3.170000e+001 -2.000000e+001  3.840000e+001
      vertex -1.500000e+001 -2.000000e+001  3.840000e+001
    endloop
  endfacet
  facet normal  0.000000e+000 -9.999999e-001  0.000000e+000
    outer loop
      vertex  3.020000e+001 -2.000000e+001  3.640000e+001
      vertex -1.500000e+001 -2.000000e+001  3.840000e+001
      vertex -1.340000e+001 -2.000000e+001  3.640000e+001
    endloop
  endfacet
  facet normal  0.000000e+000 -1.000000e+000  0.000000e+000
    outer loop
      vertex -1.500000e+001 -2.000000e+001  3.840000e+001
      vertex -1.500000e+001 -2.000000e+001  1.080000e+001
      vertex -1.340000e+001 -2.000000e+001  1.360000e+001
    endloop
  endfacet
  facet normal  0.000000e+000 -9.999999e-001  0.000000e+000
    outer loop
      vertex -1.500000e+001 -2.000000e+001  3.840000e+001
      vertex -1.340000e+001 -2.000000e+001  1.360000e+001
      vertex -1.340000e+001 -2.000000e+001  1.480000e+001
    endloop
  endfacet
  facet normal  0.000000e+000 -1.000000e+000  0.000000e+000
    outer loop
      vertex -1.500000e+001 -2.000000e+001  3.840000e+001
      vertex -1.340000e+001 -2.000000e+001  1.480000e+001
      vertex -1.340000e+001 -2.000000e+001  1.630000e+001
    endloop
  endfacet
  facet normal  0.000000e+000 -1.000000e+000  0.000000e+000
    outer loop
      vertex -1.500000e+001 -2.000000e+001  3.840000e+001
      vertex -1.340000e+001 -2.000000e+001  1.630000e+001
      vertex -1.340000e+001 -2.000000e+001  1.750000e+001
    endloop
  endfacet
  facet normal  0.000000e+000 -1.000000e+000  0.000000e+000
    outer loop
      vertex -1.500000e+001 -2.000000e+001  3.840000e+001
      vertex -1.340000e+001 -2.000000e+001  1.750000e+001
      vertex -1.340000e+001 -2.000000e+001  1.900000e+001
    endloop
  endfacet
  facet normal  0.000000e+000 -1.000000e+000  0.000000e+000
    outer loop
      vertex -1.500000e+001 -2.000000e+001  3.840000e+001
      vertex -1.340000e+001 -2.000000e+001  1.900000e+001
      vertex -1.340000e+001 -2.000000e+001  2.020000e+001
    endloop
  endfacet
  facet normal  0.000000e+000 -1.000000e+000  0.000000e+000
    outer loop
      vertex -1.500000e+001 -2.000000e+001  3.840000e+001
      vertex -1.340000e+001 -2.000000e+001  2.020000e+001
      vertex -1.340000e+001 -2.000000e+001  2.170000e+001
    endloop
  endfacet
  facet normal  0.000000e+000 -9.999999e-001  0.000000e+000
    outer loop
      vertex -1.500000e+001 -2.000000e+001  3.840000e+001
      vertex -1.340000e+001 -2.000000e+001  2.170000e+001
      vertex -1.340000e+001 -2.000000e+001  2.290000e+001
    endloop
  endfacet
  facet normal  0.000000e+000 -1.000000e+000  0.000000e+000
    outer loop
      vertex -1.500000e+001 -2.000000e+001  3.840000e+001
      vertex -1.340000e+001 -2.000000e+001  2.290000e+001
      vertex -1.340000e+001 -2.000000e+001  2.440000e+001
    endloop
  endfacet
  facet normal  0.000000e+000 -1.000000e+000  0.000000e+000
    outer loop
      vertex -1.500000e+001 -2.000000e+001  3.840000e+001
      vertex -1.340000e+001 -2.000000e+001  2.440000e+001
      vertex -1.340000e+001 -2.000000e+001  2.560000e+001
    endloop
  endfacet
  facet normal  0.000000e+000 -1.000000e+000  0.000000e+000
    outer loop
      vertex -1.500000e+001 -2.000000e+001  3.840000e+001
      vertex -1.340000e+001 -2.000000e+001  2.560000e+001
      vertex -1.340000e+001 -2.000000e+001  2.710000e+001
    endloop
  endfacet
  facet normal  0.000000e+000 -9.999999e-001  0.000000e+000
    outer loop
      vertex -1.500000e+001 -2.000000e+001  3.840000e+001
      vertex -1.340000e+001 -2.000000e+001  2.710000e+001
      vertex -1.340000e+001 -2.000000e+001  2.830000e+001
    endloop
  endfacet
  facet normal  0.000000e+000 -1.000000e+000  0.000000e+000
    outer loop
      vertex -1.500000e+001 -2.000000e+001  3.840000e+001
      vertex -1.340000e+001 -2.000000e+001  2.830000e+001
      vertex -1.340000e+001 -2.000000e+001  2.980000e+001
    endloop
  endfacet
  facet normal  0.000000e+000 -1.000000e+000  0.000000e+000
    outer loop
      vertex -1.500000e+001 -2.000000e+001  3.840000e+001
      vertex -1.340000e+001 -2.000000e+001  2.980000e+001
      vertex -1.340000e+001 -2.000000e+001  3.100000e+001
    endloop
  endfacet
  facet normal  0.000000e+000 -1.000000e+000  0.000000e+000
    outer loop
      vertex -1.500000e+001 -2.000000e+001  3.840000e+001
      vertex -1.340000e+001 -2.000000e+001  3.100000e+001
      vertex -1.340000e+001 -2.000000e+001  3.250000e+001
    endloop
  endfacet
  facet normal  0.000000e+000 -1.000000e+000  0.000000e+000
    outer loop
      vertex -1.500000e+001 -2.000000e+001  3.840000e+001
      vertex -1.340000e+001 -2.000000e+001  3.250000e+001
      vertex -1.340000e+001 -2.000000e+001  3.370000e+001
    endloop
  endfacet
  facet normal  0.000000e+000 -1.000000e+000  0.000000e+000
    outer loop
      vertex -1.500000e+001 -2.000000e+001  3.840000e+001
      vertex -1.340000e+001 -2.000000e+001  3.370000e+001
      vertex -1.340000e+001 -2.000000e+001  3.520000e+001
    endloop
  endfacet
  facet normal  0.000000e+000 -1.000000e+000  0.000000e+000
    outer loop
      vertex -1.500000e+001 -2.000000e+001  3.840000e+001
      vertex -1.340000e+001 -2.000000e+001  3.520000e+001
      vertex -1.340000e+001 -2.000000e+001  3.640000e+001
    endloop
  endfacet
  facet normal  0.000000e+000 -1.000000e+000  0.000000e+000
    outer loop
      vertex  3.520000e+001 -2.000000e+001  3.781068e+001
      vertex  3.020000e+001 -2.000000e+001  3.640000e+001
      vertex  3.020000e+001 -2.000000e+001  3.520000e+001
    endloop
  endfacet
  facet normal  0.000000e+000 -1.000000e+000  0.000000e+000
    outer loop
      vertex  3.520000e+001 -2.000000e+001  3.781068e+001
      vertex  3.020000e+001 -2.000000e+001  3.520000e+001
      vertex  3.020000e+001 -2.000000e+001  3.370000e+001
    endloop
  endfacet
  facet normal  0.000000e+000 -1.000000e+000  0.000000e+000
    outer loop
      vertex  3.520000e+001 -2.000000e+001  3.781068e+001
      vertex  3.020000e+001 -2.000000e+001  3.370000e+001
      vertex  3.020000e+001 -2.000000e+001  3.250000e+001
    endloop
  endfacet
  facet normal  0.000000e+000 -1.000000e+000  0.000000e+000
    outer loop
      vertex  3.520000e+001 -2.000000e+001  3.781068e+001
      vertex  3.020000e+001 -2.000000e+001  3.250000e+001
      vertex  3.020000e+001 -2.000000e+001  3.100000e+001
    endloop
  endfacet
  facet normal  0.000000e+000 -1.000000e+000  0.000000e+000
    outer loop
      vertex  3.520000e+001 -2.000000e+001  3.781068e+001
      vertex  3.020000e+001 -2.000000e+001  3.100000e+001
      vertex  3.020000e+001 -2.000000e+001  2.980000e+001
    endloop
  endfacet
  facet normal  0.000000e+000 -1.000000e+000  0.000000e+000
    outer loop
      vertex  3.520000e+001 -2.000000e+001  3.781068e+001
      vertex  3.020000e+001 -2.000000e+001  2.980000e+001
      vertex  3.020000e+001 -2.000000e+001  2.830000e+001
    endloop
  endfacet
  facet normal  0.000000e+000 -9.999999e-001  0.000000e+000
    outer loop
      vertex  3.520000e+001 -2.000000e+001  3.781068e+001
      vertex  3.020000e+001 -2.000000e+001  2.830000e+001
      vertex  3.020000e+001 -2.000000e+001  2.710000e+001
    endloop
  endfacet
  facet normal  0.000000e+000 -1.000000e+000  0.000000e+000
    outer loop
      vertex  3.520000e+001 -2.000000e+001  3.781068e+001
      vertex  3.020000e+001 -2.000000e+001  2.710000e+001
      vertex  3.020000e+001 -2.000000e+001  2.560000e+001
    endloop
  endfacet
  facet normal  0.000000e+000 -1.000000e+000  0.000000e+000
    outer loop
      vertex  3.520000e+001 -2.000000e+001  3.781068e+001
      vertex  3.020000e+001 -2.000000e+001  2.560000e+001
      vertex  3.020000e+001 -2.000000e+001  2.440000e+001
    endloop
  endfacet
  facet normal  0.000000e+000 -1.000000e+000  0.000000e+000
    outer loop
      vertex  3.520000e+001 -2.000000e+001  3.781068e+001
      vertex  3.020000e+001 -2.000000e+001  2.440000e+001
      vertex  3.020000e+001 -2.000000e+001  2.290000e+001
    endloop
  endfacet
  facet normal  0.000000e+000 -9.999999e-001  0.000000e+000
    outer loop
      vertex  3.520000e+001 -2.000000e+001  3.781068e+001
      vertex  3.020000e+001 -2.000000e+001  2.290000e+001
      vertex  3.020000e+001 -2.000000e+001  2.170000e+001
    endloop
  endfacet
  facet normal  0.000000e+000 -1.000000e+000  0.000000e+000
    outer loop
      vertex  3.520000e+001 -2.000000e+001  3.781068e+001
      vertex  3.020000e+001 -2.000000e+001  2.170000e+001
      vertex  3.020000e+001 -2.000000e+001  2.020000e+001
    endloop
  endfacet
  facet normal  0.000000e+000 -1.000000e+000  0.000000e+000
    outer loop
      vertex  3.520000e+001 -2.000000e+001  3.781068e+001
      vertex  3.020000e+001 -2.000000e+001  2.020000e+001
      vertex  3.020000e+001 -2.000000e+001  1.900000e+001
    endloop
  endfacet
  facet normal  0.000000e+000 -1.000000e+000  0.000000e+000
    outer loop
      vertex  3.520000e+001 -2.000000e+001  3.781068e+001
      vertex  3.020000e+001 -2.000000e+001  1.900000e+001
      vertex  3.020000e+001 -2.000000e+001  1.750000e+001
    endloop
  endfacet
  facet normal  0.000000e+000 -1.000000e+000  0.000000e+000
    outer loop
      vertex  3.520000e+001 -2.000000e+001  3.781068e+001
      vertex  3.020000e+001 -2.000000e+001  1.750000e+001
      vertex  3.020000e+001 -2.000000e+001  1.630000e+001
    endloop
  endfacet
  facet normal  0.000000e+000 -1.000000e+000  0.000000e+000
    outer loop
      vertex  3.520000e+001 -2.000000e+001  3.781068e+001
      vertex  3.020000e+001 -2.000000e+001  1.630000e+001
      vertex  3.020000e+001 -2.000000e+001  1.480000e+001
    endloop
  endfacet
  facet normal  0.000000e+000 -9.999999e-001  0.000000e+000
    outer loop
      vertex  3.520000e+001 -2.000000e+001  3.781068e+001
      vertex  3.020000e+001 -2.000000e+001  1.480000e+001
      vertex  3.020000e+001 -2.000000e+001  1.360000e+001
    endloop
  endfacet
  facet normal  0.000000e+000 -1.000000e+000  0.000000e+000
    outer loop
      vertex  3.520000e+001 -2.000000e+001  3.781068e+001
      vertex  3.020000e+001 -2.000000e+001  1.360000e+001
      vertex  3.520000e+001 -2.000000e+001  9.800000e+000
    endloop
  endfacet
  facet normal  0.000000e+000 -1.000000e+000  -0.000000e+000
    outer loop
      vertex  3.520000e+001 -2.000000e+001  9.800000e+000
      vertex  3.020000e+001 -2.000000e+001  1.360000e+001
      vertex -1.500000e+001 -2.000000e+001  9.800000e+000
    endloop
  endfacet
  facet normal  0.000000e+000 -1.000000e+000  0.000000e+000
    outer loop
      vertex -1.500000e+001 -2.000000e+001  9.800000e+000
      vertex  3.020000e+001 -2.000000e+001  1.360000e+001
      vertex -1.340000e+001 -2.000000e+001  1.360000e+001
    endloop
  endfacet
  facet normal  0.000000e+000 -1.000000e+000  0.000000e+000
    outer loop
      vertex -1.500000e+001 -2.000000e+001  9.800000e+000
      vertex -1.340000e+001 -2.000000e+001  1.360000e+001
      vertex -1.500000e+001 -2.000000e+001  1.080000e+001
    endloop
  endfacet
  facet normal  0.000000e+000 -1.000000e+000  0.000000e+000
    outer loop
      vertex -1.340000e+001 -2.000000e+001  1.630000e+001
      vertex -1.340000e+001 -2.000000e+001  1.480000e+001
      vertex  3.020000e+001 -2.000000e+001  1.630000e+001
    endloop
  endfacet
  facet normal  0.000000e+000 -1.000000e+000  -0.000000e+000
    outer loop
      vertex  3.020000e+001 -2.000000e+001  1.630000e+001
      vertex -1.340000e+001 -2.000000e+001  1.480000e+001
      vertex  3.020000e+001 -2.000000e+001  1.480000e+001
    endloop
  endfacet
  facet normal  0.000000e+000 -1.000000e+000  0.000000e+000
    outer loop
      vertex -1.340000e+001 -2.000000e+001  1.900000e+001
      vertex -1.340000e+001 -2.000000e+001  1.750000e+001
      vertex  3.020000e+001 -2.000000e+001  1.900000e+001
    endloop
  endfacet
  facet normal  0.000000e+000 -1.000000e+000  -0.000000e+000
    outer loop
      vertex  3.020000e+001 -2.000000e+001  1.900000e+001
      vertex -1.340000e+001 -2.000000e+001  1.750000e+001
      vertex  3.020000e+001 -2.000000e+001  1.750000e+001
    endloop
  endfacet
  facet normal  0.000000e+000 -1.000000e+000  0.000000e+000
    outer loop
      vertex -1.340000e+001 -2.000000e+001  2.170000e+001
      vertex -1.340000e+001 -2.000000e+001  2.020000e+001
      vertex  3.020000e+001 -2.000000e+001  2.170000e+001
    endloop
  endfacet
  facet normal  0.000000e+000 -1.000000e+000  -0.000000e+000
    outer loop
      vertex  3.020000e+001 -2.000000e+001  2.170000e+001
      vertex -1.340000e+001 -2.000000e+001  2.020000e+001
      vertex  3.020000e+001 -2.000000e+001  2.020000e+001
    endloop
  endfacet
  facet normal  0.000000e+000 -1.000000e+000  0.000000e+000
    outer loop
      vertex -1.340000e+001 -2.000000e+001  2.440000e+001
      vertex -1.340000e+001 -2.000000e+001  2.290000e+001
      vertex  3.020000e+001 -2.000000e+001  2.440000e+001
    endloop
  endfacet
  facet normal  0.000000e+000 -1.000000e+000  -0.000000e+000
    outer loop
      vertex  3.020000e+001 -2.000000e+001  2.440000e+001
      vertex -1.340000e+001 -2.000000e+001  2.290000e+001
      vertex  3.020000e+001 -2.000000e+001  2.290000e+001
    endloop
  endfacet
  facet normal  0.000000e+000 -1.000000e+000  0.000000e+000
    outer loop
      vertex -1.340000e+001 -2.000000e+001  2.710000e+001
      vertex -1.340000e+001 -2.000000e+001  2.560000e+001
      vertex  3.020000e+001 -2.000000e+001  2.710000e+001
    endloop
  endfacet
  facet normal  0.000000e+000 -1.000000e+000  -0.000000e+000
    outer loop
      vertex  3.020000e+001 -2.000000e+001  2.710000e+001
      vertex -1.340000e+001 -2.000000e+001  2.560000e+001
      vertex  3.020000e+001 -2.000000e+001  2.560000e+001
    endloop
  endfacet
  facet normal  0.000000e+000 -1.000000e+000  0.000000e+000
    outer loop
      vertex -1.340000e+001 -2.000000e+001  2.980000e+001
      vertex -1.340000e+001 -2.000000e+001  2.830000e+001
      vertex  3.020000e+001 -2.000000e+001  2.980000e+001
    endloop
  endfacet
  facet normal  0.000000e+000 -1.000000e+000  -0.000000e+000
    outer loop
      vertex  3.020000e+001 -2.000000e+001  2.980000e+001
      vertex -1.340000e+001 -2.000000e+001  2.830000e+001
      vertex  3.020000e+001 -2.000000e+001  2.830000e+001
    endloop
  endfacet
  facet normal  0.000000e+000 -1.000000e+000  0.000000e+000
    outer loop
      vertex -1.340000e+001 -2.000000e+001  3.250000e+001
      vertex -1.340000e+001 -2.000000e+001  3.100000e+001
      vertex  3.020000e+001 -2.000000e+001  3.250000e+001
    endloop
  endfacet
  facet normal  0.000000e+000 -1.000000e+000  -0.000000e+000
    outer loop
      vertex  3.020000e+001 -2.000000e+001  3.250000e+001
      vertex -1.340000e+001 -2.000000e+001  3.100000e+001
      vertex  3.020000e+001 -2.000000e+001  3.100000e+001
    endloop
  endfacet
  facet normal  0.000000e+000 -1.000000e+000  0.000000e+000
    outer loop
      vertex -1.340000e+001 -2.000000e+001  3.520000e+001
      vertex -1.340000e+001 -2.000000e+001  3.370000e+001
      vertex  3.020000e+001 -2.000000e+001  3.520000e+001
    endloop
  endfacet
  facet normal  0.000000e+000 -1.000000e+000  -0.000000e+000
    outer loop
      vertex  3.020000e+001 -2.000000e+001  3.520000e+001
      vertex -1.340000e+001 -2.000000e+001  3.370000e+001
      vertex  3.020000e+001 -2.000000e+001  3.370000e+001
    endloop
  endfacet
  facet normal  -0.000000e+000  0.000000e+000 -1.000000e+000
    outer loop
      vertex -1.500000e+001 -1.850000e+001  9.800000e+000
      vertex  3.520000e+001 -1.850000e+001  9.800000e+000
      vertex -1.500000e+001 -2.000000e+001  9.800000e+000
    endloop
  endfacet
  facet normal  0.000000e+000  0.000000e+000 -1.000000e+000
    outer loop
      vertex -1.500000e+001 -2.000000e+001  9.800000e+000
      vertex  3.520000e+001 -1.850000e+001  9.800000e+000
      vertex  3.520000e+001 -2.000000e+001  9.800000e+000
    endloop
  endfacet
  facet normal -1.000000e+000  0.000000e+000  0.000000e+000
    outer loop
      vertex -1.500000e+001 -1.850000e+001  1.080000e+001
      vertex -1.500000e+001 -1.850000e+001  9.800000e+000
      vertex -1.500000e+001 -2.000000e+001  1.080000e+001
    endloop
  endfacet
  facet normal -1.000000e+000  0.000000e+000  0.000000e+000
    outer loop
      vertex -1.500000e+001 -2.000000e+001  1.080000e+001
      vertex -1.500000e+001 -1.850000e+001  9.800000e+000
      vertex -1.500000e+001 -2.000000e+001  9.800000e+000
    endloop
  endfacet
  facet normal  0.000000e+000  1.000000e+000  0.000000e+000
    outer loop
      vertex -1.340000e+001 -1.850000e+001  3.640000e+001
      vertex -1.836202e+001 -1.850000e+001  3.633412e+001
      vertex -1.824923e+001 -1.850000e+001  3.675505e+001
    endloop
  endfacet
  facet normal  -0.000000e+000  1.000000e+000  0.000000e+000
    outer loop
      vertex -1.340000e+001 -1.850000e+001  3.640000e+001
      vertex -1.824923e+001 -1.850000e+001  3.675505e+001
      vertex -1.590000e+001 -1.850000e+001  3.840000e+001
    endloop
  endfacet
  facet normal  -0.000000e+000  1.000000e+000  0.000000e+000
    outer loop
      vertex -1.340000e+001 -1.850000e+001  3.640000e+001
      vertex -1.590000e+001 -1.850000e+001  3.840000e+001
      vertex  3.170000e+001 -1.850000e+001  3.840000e+001
    endloop
  endfacet
  facet normal  0.000000e+000  9.999999e-001  0.000000e+000
    outer loop
      vertex -1.340000e+001 -1.850000e+001  3.640000e+001
      vertex  3.170000e+001 -1.850000e+001  3.840000e+001
      vertex  3.020000e+001 -1.850000e+001  3.640000e+001
    endloop
  endfacet
  facet normal  0.000000e+000  1.000000e+000  0.000000e+000
    outer loop
      vertex -1.840000e+001 -1.850000e+001  1.970000e+001
      vertex -1.340000e+001 -1.850000e+001  3.370000e+001
      vertex -1.340000e+001 -1.850000e+001  3.250000e+001
    endloop
  endfacet
  facet normal  0.000000e+000  1.000000e+000  0.000000e+000
    outer loop
      vertex -1.840000e+001 -1.850000e+001  1.970000e+001
      vertex -1.340000e+001 -1.850000e+001  3.250000e+001
      vertex -1.340000e+001 -1.850000e+001  3.100000e+001
    endloop
  endfacet
  facet normal  0.000000e+000  1.000000e+000  0.000000e+000
    outer loop
      vertex -1.840000e+001 -1.850000e+001  1.970000e+001
      vertex -1.340000e+001 -1.850000e+001  3.100000e+001
      vertex -1.340000e+001 -1.850000e+001  2.980000e+001
    endloop
  endfacet
  facet normal  0.000000e+000  1.000000e+000  0.000000e+000
    outer loop
      vertex -1.840000e+001 -1.850000e+001  1.970000e+001
      vertex -1.340000e+001 -1.850000e+001  2.980000e+001
      vertex -1.340000e+001 -1.850000e+001  2.830000e+001
    endloop
  endfacet
  facet normal  0.000000e+000  9.999999e-001  0.000000e+000
    outer loop
      vertex -1.840000e+001 -1.850000e+001  1.970000e+001
      vertex -1.340000e+001 -1.850000e+001  2.830000e+001
      vertex -1.340000e+001 -1.850000e+001  2.710000e+001
    endloop
  endfacet
  facet normal  0.000000e+000  1.000000e+000  0.000000e+000
    outer loop
      vertex -1.840000e+001 -1.850000e+001  1.970000e+001
      vertex -1.340000e+001 -1.850000e+001  2.710000e+001
      vertex -1.340000e+001 -1.850000e+001  2.560000e+001
    endloop
  endfacet
  facet normal  0.000000e+000  1.000000e+000  0.000000e+000
    outer loop
      vertex -1.840000e+001 -1.850000e+001  1.970000e+001
      vertex -1.340000e+001 -1.850000e+001  2.560000e+001
      vertex -1.340000e+001 -1.850000e+001  2.440000e+001
    endloop
  endfacet
  facet normal  0.000000e+000  1.000000e+000  0.000000e+000
    outer loop
      vertex -1.840000e+001 -1.850000e+001  1.970000e+001
      vertex -1.340000e+001 -1.850000e+001  2.440000e+001
      vertex -1.340000e+001 -1.850000e+001  2.290000e+001
    endloop
  endfacet
  facet normal  0.000000e+000  9.999999e-001  0.000000e+000
    outer loop
      vertex -1.840000e+001 -1.850000e+001  1.970000e+001
      vertex -1.340000e+001 -1.850000e+001  2.290000e+001
      vertex -1.340000e+001 -1.850000e+001  2.170000e+001
    endloop
  endfacet
  facet normal  0.000000e+000  1.000000e+000  0.000000e+000
    outer loop
      vertex -1.840000e+001 -1.850000e+001  1.970000e+001
      vertex -1.340000e+001 -1.850000e+001  2.170000e+001
      vertex -1.340000e+001 -1.850000e+001  2.020000e+001
    endloop
  endfacet
  facet normal  0.000000e+000  1.000000e+000  0.000000e+000
    outer loop
      vertex -1.840000e+001 -1.850000e+001  1.970000e+001
      vertex -1.340000e+001 -1.850000e+001  2.020000e+001
      vertex -1.340000e+001 -1.850000e+001  1.900000e+001
    endloop
  endfacet
  facet normal  0.000000e+000  1.000000e+000  0.000000e+000
    outer loop
      vertex -1.840000e+001 -1.850000e+001  1.970000e+001
      vertex -1.340000e+001 -1.850000e+001  1.900000e+001
      vertex -1.340000e+001 -1.850000e+001  1.750000e+001
    endloop
  endfacet
  facet normal  0.000000e+000  1.000000e+000  0.000000e+000
    outer loop
      vertex -1.840000e+001 -1.850000e+001  1.970000e+001
      vertex -1.340000e+001 -1.850000e+001  1.750000e+001
      vertex -1.340000e+001 -1.850000e+001  1.630000e+001
    endloop
  endfacet
  facet normal  0.000000e+000  1.000000e+000  0.000000e+000
    outer loop
      vertex -1.840000e+001 -1.850000e+001  1.970000e+001
      vertex -1.340000e+001 -1.850000e+001  1.630000e+001
      vertex -1.340000e+001 -1.850000e+001  1.480000e+001
    endloop
  endfacet
  facet normal  0.000000e+000  9.999999e-001  0.000000e+000
    outer loop
      vertex -1.840000e+001 -1.850000e+001  1.970000e+001
      vertex -1.340000e+001 -1.850000e+001  1.480000e+001
      vertex -1.340000e+001 -1.850000e+001  1.360000e+001
    endloop
  endfacet
  facet normal  0.000000e+000  1.000000e+000  0.000000e+000
    outer loop
      vertex -1.840000e+001 -1.850000e+001  1.970000e+001
      vertex -1.340000e+001 -1.850000e+001  1.360000e+001
      vertex -1.840000e+001 -1.850000e+001  1.330000e+001
    endloop
  endfacet
  facet normal  0.000000e+000  9.999999e-001  0.000000e+000
    outer loop
      vertex -1.840000e+001 -1.850000e+001  1.330000e+001
      vertex -1.340000e+001 -1.850000e+001  1.360000e+001
      vertex -1.500000e+001 -1.850000e+001  1.080000e+001
    endloop
  endfacet
  facet normal  0.000000e+000  1.000000e+000  0.000000e+000
    outer loop
      vertex -1.840000e+001 -1.850000e+001  1.330000e+001
      vertex -1.500000e+001 -1.850000e+001  1.080000e+001
      vertex -1.675505e+001 -1.850000e+001  1.095077e+001
    endloop
  endfacet
  facet normal  0.000000e+000  9.999999e-001  0.000000e+000
    outer loop
      vertex -1.840000e+001 -1.850000e+001  1.330000e+001
      vertex -1.675505e+001 -1.850000e+001  1.095077e+001
      vertex -1.715000e+001 -1.850000e+001  1.113494e+001
    endloop
  endfacet
  facet normal  0.000000e+000  1.000000e+000  0.000000e+000
    outer loop
      vertex -1.840000e+001 -1.850000e+001  1.330000e+001
      vertex -1.715000e+001 -1.850000e+001  1.113494e+001
      vertex -1.750697e+001 -1.850000e+001  1.138489e+001
    endloop
  endfacet
  facet normal  0.000000e+000  1.000000e+000  0.000000e+000
    outer loop
      vertex -1.840000e+001 -1.850000e+001  1.330000e+001
      vertex -1.750697e+001 -1.850000e+001  1.138489e+001
      vertex -1.781511e+001 -1.850000e+001  1.169303e+001
    endloop
  endfacet
  facet normal  0.000000e+000  1.000000e+000  0.000000e+000
    outer loop
      vertex -1.840000e+001 -1.850000e+001  1.330000e+001
      vertex -1.781511e+001 -1.850000e+001  1.169303e+001
      vertex -1.806506e+001 -1.850000e+001  1.205000e+001
    endloop
  endfacet
  facet normal  0.000000e+000  9.999999e-001  0.000000e+000
    outer loop
      vertex -1.840000e+001 -1.850000e+001  1.330000e+001
      vertex -1.806506e+001 -1.850000e+001  1.205000e+001
      vertex -1.824923e+001 -1.850000e+001  1.244495e+001
    endloop
  endfacet
  facet normal  0.000000e+000  1.000000e+000  0.000000e+000
    outer loop
      vertex -1.840000e+001 -1.850000e+001  1.330000e+001
      vertex -1.824923e+001 -1.850000e+001  1.244495e+001
      vertex -1.836202e+001 -1.850000e+001  1.286588e+001
    endloop
  endfacet
  facet normal  -0.000000e+000  1.000000e+000  0.000000e+000
    outer loop
      vertex -1.824923e+001 -1.850000e+001  3.675505e+001
      vertex -1.806506e+001 -1.850000e+001  3.715000e+001
      vertex -1.781511e+001 -1.850000e+001  3.750697e+001
    endloop
  endfacet
  facet normal  -0.000000e+000  1.000000e+000  0.000000e+000
    outer loop
      vertex -1.824923e+001 -1.850000e+001  3.675505e+001
      vertex -1.781511e+001 -1.850000e+001  3.750697e+001
      vertex -1.750697e+001 -1.850000e+001  3.781511e+001
    endloop
  endfacet
  facet normal  -0.000000e+000  1.000000e+000  0.000000e+000
    outer loop
      vertex -1.824923e+001 -1.850000e+001  3.675505e+001
      vertex -1.750697e+001 -1.850000e+001  3.781511e+001
      vertex -1.715000e+001 -1.850000e+001  3.806506e+001
    endloop
  endfacet
  facet normal  -0.000000e+000  1.000000e+000  0.000000e+000
    outer loop
      vertex -1.824923e+001 -1.850000e+001  3.675505e+001
      vertex -1.715000e+001 -1.850000e+001  3.806506e+001
      vertex -1.675505e+001 -1.850000e+001  3.824923e+001
    endloop
  endfacet
  facet normal  -0.000000e+000  1.000000e+000  0.000000e+000
    outer loop
      vertex -1.824923e+001 -1.850000e+001  3.675505e+001
      vertex -1.675505e+001 -1.850000e+001  3.824923e+001
      vertex -1.633412e+001 -1.850000e+001  3.836202e+001
    endloop
  endfacet
  facet normal  -0.000000e+000  1.000000e+000  0.000000e+000
    outer loop
      vertex -1.824923e+001 -1.850000e+001  3.675505e+001
      vertex -1.633412e+001 -1.850000e+001  3.836202e+001
      vertex -1.590000e+001 -1.850000e+001  3.840000e+001
    endloop
  endfacet
  facet normal  0.000000e+000  1.000000e+000  0.000000e+000
    outer loop
      vertex  3.020000e+001 -1.850000e+001  3.640000e+001
      vertex  3.170000e+001 -1.850000e+001  3.840000e+001
      vertex  3.213581e+001 -1.850000e+001  3.836172e+001
    endloop
  endfacet
  facet normal  0.000000e+000  1.000000e+000  0.000000e+000
    outer loop
      vertex  3.020000e+001 -1.850000e+001  3.640000e+001
      vertex  3.213581e+001 -1.850000e+001  3.836172e+001
      vertex  3.255828e+001 -1.850000e+001  3.824805e+001
    endloop
  endfacet
  facet normal  0.000000e+000  9.999999e-001  0.000000e+000
    outer loop
      vertex  3.020000e+001 -1.850000e+001  3.640000e+001
      vertex  3.255828e+001 -1.850000e+001  3.824805e+001
      vertex  3.295446e+001 -1.850000e+001  3.806248e+001
    endloop
  endfacet
  facet normal  0.000000e+000  1.000000e+000  0.000000e+000
    outer loop
      vertex  3.020000e+001 -1.850000e+001  3.640000e+001
      vertex  3.295446e+001 -1.850000e+001  3.806248e+001
      vertex  3.331223e+001 -1.850000e+001  3.781068e+001
    endloop
  endfacet
  facet normal  -0.000000e+000  1.000000e+000  0.000000e+000
    outer loop
      vertex  3.020000e+001 -1.850000e+001  3.640000e+001
      vertex  3.331223e+001 -1.850000e+001  3.781068e+001
      vertex  3.520000e+001 -1.850000e+001  3.781068e+001
    endloop
  endfacet
  facet normal  0.000000e+000  1.000000e+000  -0.000000e+000
    outer loop
      vertex  3.520000e+001 -1.850000e+001  3.781068e+001
      vertex  3.520000e+001 -1.850000e+001  9.800000e+000
      vertex  3.020000e+001 -1.850000e+001  1.360000e+001
    endloop
  endfacet
  facet normal  0.000000e+000  9.999999e-001  0.000000e+000
    outer loop
      vertex  3.520000e+001 -1.850000e+001  3.781068e+001
      vertex  3.020000e+001 -1.850000e+001  1.360000e+001
      vertex  3.020000e+001 -1.850000e+001  1.480000e+001
    endloop
  endfacet
  facet normal  0.000000e+000  1.000000e+000  0.000000e+000
    outer loop
      vertex  3.520000e+001 -1.850000e+001  3.781068e+001
      vertex  3.020000e+001 -1.850000e+001  1.480000e+001
      vertex  3.020000e+001 -1.850000e+001  1.630000e+001
    endloop
  endfacet
  facet normal  0.000000e+000  1.000000e+000  0.000000e+000
    outer loop
      vertex  3.520000e+001 -1.850000e+001  3.781068e+001
      vertex  3.020000e+001 -1.850000e+001  1.630000e+001
      vertex  3.020000e+001 -1.850000e+001  1.750000e+001
    endloop
  endfacet
  facet normal  0.000000e+000  1.000000e+000  0.000000e+000
    outer loop
      vertex  3.520000e+001 -1.850000e+001  3.781068e+001
      vertex  3.020000e+001 -1.850000e+001  1.750000e+001
      vertex  3.020000e+001 -1.850000e+001  1.900000e+001
    endloop
  endfacet
  facet normal  0.000000e+000  1.000000e+000  0.000000e+000
    outer loop
      vertex  3.520000e+001 -1.850000e+001  3.781068e+001
      vertex  3.020000e+001 -1.850000e+001  1.900000e+001
      vertex  3.020000e+001 -1.850000e+001  2.020000e+001
    endloop
  endfacet
  facet normal  0.000000e+000  1.000000e+000  0.000000e+000
    outer loop
      vertex  3.520000e+001 -1.850000e+001  3.781068e+001
      vertex  3.020000e+001 -1.850000e+001  2.020000e+001
      vertex  3.020000e+001 -1.850000e+001  2.170000e+001
    endloop
  endfacet
  facet normal  0.000000e+000  9.999999e-001  0.000000e+000
    outer loop
      vertex  3.520000e+001 -1.850000e+001  3.781068e+001
      vertex  3.020000e+001 -1.850000e+001  2.170000e+001
      vertex  3.020000e+001 -1.850000e+001  2.290000e+001
    endloop
  endfacet
  facet normal  0.000000e+000  1.000000e+000  0.000000e+000
    outer loop
      vertex  3.520000e+001 -1.850000e+001  3.781068e+001
      vertex  3.020000e+001 -1.850000e+001  2.290000e+001
      vertex  3.020000e+001 -1.850000e+001  2.440000e+001
    endloop
  endfacet
  facet normal  0.000000e+000  1.000000e+000  0.000000e+000
    outer loop
      vertex  3.520000e+001 -1.850000e+001  3.781068e+001
      vertex  3.020000e+001 -1.850000e+001  2.440000e+001
      vertex  3.020000e+001 -1.850000e+001  2.560000e+001
    endloop
  endfacet
  facet normal  0.000000e+000  1.000000e+000  0.000000e+000
    outer loop
      vertex  3.520000e+001 -1.850000e+001  3.781068e+001
      vertex  3.020000e+001 -1.850000e+001  2.560000e+001
      vertex  3.020000e+001 -1.850000e+001  2.710000e+001
    endloop
  endfacet
  facet normal  0.000000e+000  9.999999e-001  0.000000e+000
    outer loop
      vertex  3.520000e+001 -1.850000e+001  3.781068e+001
      vertex  3.020000e+001 -1.850000e+001  2.710000e+001
      vertex  3.020000e+001 -1.850000e+001  2.830000e+001
    endloop
  endfacet
  facet normal  0.000000e+000  1.000000e+000  0.000000e+000
    outer loop
      vertex  3.520000e+001 -1.850000e+001  3.781068e+001
      vertex  3.020000e+001 -1.850000e+001  2.830000e+001
      vertex  3.020000e+001 -1.850000e+001  2.980000e+001
    endloop
  endfacet
  facet normal  0.000000e+000  1.000000e+000  0.000000e+000
    outer loop
      vertex  3.520000e+001 -1.850000e+001  3.781068e+001
      vertex  3.020000e+001 -1.850000e+001  2.980000e+001
      vertex  3.020000e+001 -1.850000e+001  3.100000e+001
    endloop
  endfacet
  facet normal  0.000000e+000  1.000000e+000  0.000000e+000
    outer loop
      vertex  3.520000e+001 -1.850000e+001  3.781068e+001
      vertex  3.020000e+001 -1.850000e+001  3.100000e+001
      vertex  3.020000e+001 -1.850000e+001  3.250000e+001
    endloop
  endfacet
  facet normal  0.000000e+000  1.000000e+000  0.000000e+000
    outer loop
      vertex  3.520000e+001 -1.850000e+001  3.781068e+001
      vertex  3.020000e+001 -1.850000e+001  3.250000e+001
      vertex  3.020000e+001 -1.850000e+001  3.370000e+001
    endloop
  endfacet
  facet normal  0.000000e+000  1.000000e+000  0.000000e+000
    outer loop
      vertex  3.520000e+001 -1.850000e+001  3.781068e+001
      vertex  3.020000e+001 -1.850000e+001  3.370000e+001
      vertex  3.020000e+001 -1.850000e+001  3.520000e+001
    endloop
  endfacet
  facet normal  0.000000e+000  1.000000e+000  0.000000e+000
    outer loop
      vertex  3.520000e+001 -1.850000e+001  3.781068e+001
      vertex  3.020000e+001 -1.850000e+001  3.520000e+001
      vertex  3.020000e+001 -1.850000e+001  3.640000e+001
    endloop
  endfacet
  facet normal  0.000000e+000  1.000000e+000  0.000000e+000
    outer loop
      vertex -1.500000e+001 -1.850000e+001  1.080000e+001
      vertex -1.340000e+001 -1.850000e+001  1.360000e+001
      vertex -1.500000e+001 -1.850000e+001  9.800000e+000
    endloop
  endfacet
  facet normal  0.000000e+000  1.000000e+000  0.000000e+000
    outer loop
      vertex -1.500000e+001 -1.850000e+001  9.800000e+000
      vertex -1.340000e+001 -1.850000e+001  1.360000e+001
      vertex  3.020000e+001 -1.850000e+001  1.360000e+001
    endloop
  endfacet
  facet normal  0.000000e+000  1.000000e+000  0.000000e+000
    outer loop
      vertex -1.500000e+001 -1.850000e+001  9.800000e+000
      vertex  3.020000e+001 -1.850000e+001  1.360000e+001
      vertex  3.520000e+001 -1.850000e+001  9.800000e+000
    endloop
  endfacet
  facet normal  0.000000e+000  1.000000e+000  0.000000e+000
    outer loop
      vertex -1.340000e+001 -1.850000e+001  1.630000e+001
      vertex  3.020000e+001 -1.850000e+001  1.630000e+001
      vertex -1.340000e+001 -1.850000e+001  1.480000e+001
    endloop
  endfacet
  facet normal  0.000000e+000  1.000000e+000  0.000000e+000
    outer loop
      vertex -1.340000e+001 -1.850000e+001  1.480000e+001
      vertex  3.020000e+001 -1.850000e+001  1.630000e+001
      vertex  3.020000e+001 -1.850000e+001  1.480000e+001
    endloop
  endfacet
  facet normal  0.000000e+000  1.000000e+000  0.000000e+000
    outer loop
      vertex -1.340000e+001 -1.850000e+001  1.900000e+001
      vertex  3.020000e+001 -1.850000e+001  1.900000e+001
      vertex -1.340000e+001 -1.850000e+001  1.750000e+001
    endloop
  endfacet
  facet normal  0.000000e+000  1.000000e+000  0.000000e+000
    outer loop
      vertex -1.340000e+001 -1.850000e+001  1.750000e+001
      vertex  3.020000e+001 -1.850000e+001  1.900000e+001
      vertex  3.020000e+001 -1.850000e+001  1.750000e+001
    endloop
  endfacet
  facet normal  0.000000e+000  1.000000e+000  0.000000e+000
    outer loop
      vertex -1.340000e+001 -1.850000e+001  2.170000e+001
      vertex  3.020000e+001 -1.850000e+001  2.170000e+001
      vertex -1.340000e+001 -1.850000e+001  2.020000e+001
    endloop
  endfacet
  facet normal  0.000000e+000  1.000000e+000  0.000000e+000
    outer loop
      vertex -1.340000e+001 -1.850000e+001  2.020000e+001
      vertex  3.020000e+001 -1.850000e+001  2.170000e+001
      vertex  3.020000e+001 -1.850000e+001  2.020000e+001
    endloop
  endfacet
  facet normal  0.000000e+000  1.000000e+000  0.000000e+000
    outer loop
      vertex -1.340000e+001 -1.850000e+001  2.440000e+001
      vertex  3.020000e+001 -1.850000e+001  2.440000e+001
      vertex -1.340000e+001 -1.850000e+001  2.290000e+001
    endloop
  endfacet
  facet normal  0.000000e+000  1.000000e+000  0.000000e+000
    outer loop
      vertex -1.340000e+001 -1.850000e+001  2.290000e+001
      vertex  3.020000e+001 -1.850000e+001  2.440000e+001
      vertex  3.020000e+001 -1.850000e+001  2.290000e+001
    endloop
  endfacet
  facet normal  0.000000e+000  1.000000e+000  0.000000e+000
    outer loop
      vertex -1.340000e+001 -1.850000e+001  2.710000e+001
      vertex  3.020000e+001 -1.850000e+001  2.710000e+001
      vertex -1.340000e+001 -1.850000e+001  2.560000e+001
    endloop
  endfacet
  facet normal  0.000000e+000  1.000000e+000  0.000000e+000
    outer loop
      vertex -1.340000e+001 -1.850000e+001  2.560000e+001
      vertex  3.020000e+001 -1.850000e+001  2.710000e+001
      vertex  3.020000e+001 -1.850000e+001  2.560000e+001
    endloop
  endfacet
  facet normal  0.000000e+000  1.000000e+000  0.000000e+000
    outer loop
      vertex -1.340000e+001 -1.850000e+001  2.980000e+001
      vertex  3.020000e+001 -1.850000e+001  2.980000e+001
      vertex -1.340000e+001 -1.850000e+001  2.830000e+001
    endloop
  endfacet
  facet normal  0.000000e+000  1.000000e+000  0.000000e+000
    outer loop
      vertex -1.340000e+001 -1.850000e+001  2.830000e+001
      vertex  3.020000e+001 -1.850000e+001  2.980000e+001
      vertex  3.020000e+001 -1.850000e+001  2.830000e+001
    endloop
  endfacet
  facet normal  0.000000e+000  1.000000e+000  0.000000e+000
    outer loop
      vertex -1.340000e+001 -1.850000e+001  3.250000e+001
      vertex  3.020000e+001 -1.850000e+001  3.250000e+001
      vertex -1.340000e+001 -1.850000e+001  3.100000e+001
    endloop
  endfacet
  facet normal  0.000000e+000  1.000000e+000  0.000000e+000
    outer loop
      vertex -1.340000e+001 -1.850000e+001  3.100000e+001
      vertex  3.020000e+001 -1.850000e+001  3.250000e+001
      vertex  3.020000e+001 -1.850000e+001  3.100000e+001
    endloop
  endfacet
  facet normal  0.000000e+000  1.000000e+000  0.000000e+000
    outer loop
      vertex -1.340000e+001 -1.850000e+001  3.520000e+001
      vertex  3.020000e+001 -1.850000e+001  3.520000e+001
      vertex -1.340000e+001 -1.850000e+001  3.370000e+001
    endloop
  endfacet
  facet normal  0.000000e+000  1.000000e+000  0.000000e+000
    outer loop
      vertex -1.340000e+001 -1.850000e+001  3.370000e+001
      vertex  3.020000e+001 -1.850000e+001  3.520000e+001
      vertex  3.020000e+001 -1.850000e+001  3.370000e+001
    endloop
  endfacet
  facet normal  0.000000e+000  1.000000e+000  -0.000000e+000
    outer loop
      vertex -1.340000e+001 -1.850000e+001  3.640000e+001
      vertex -1.340000e+001 -1.850000e+001  3.520000e+001
      vertex -1.836202e+001 -1.850000e+001  3.633412e+001
    endloop
  endfacet
  facet normal  0.000000e+000  1.000000e+000  0.000000e+000
    outer loop
      vertex -1.836202e+001 -1.850000e+001  3.633412e+001
      vertex -1.340000e+001 -1.850000e+001  3.520000e+001
      vertex -1.840000e+001 -1.850000e+001  3.590000e+001
    endloop
  endfacet
  facet normal  0.000000e+000  1.000000e+000  -0.000000e+000
    outer loop
      vertex -1.340000e+001 -1.850000e+001  3.520000e+001
      vertex -1.340000e+001 -1.850000e+001  3.370000e+001
      vertex -1.840000e+001 -1.850000e+001  3.590000e+001
    endloop
  endfacet
  facet normal  0.000000e+000  1.000000e+000  0.000000e+000
    outer loop
      vertex -1.840000e+001 -1.850000e+001  3.590000e+001
      vertex -1.340000e+001 -1.850000e+001  3.370000e+001
      vertex -1.840000e+001 -1.850000e+001  1.970000e+001
    endloop
  endfacet
  facet normal  0.000000e+000  1.000000e+000  0.000000e+000
    outer loop
      vertex -1.633412e+001 -1.850000e+001  1.083798e+001
      vertex -1.675505e+001 -1.850000e+001  1.095077e+001
      vertex -1.590000e+001 -1.850000e+001  1.080000e+001
    endloop
  endfacet
  facet normal  0.000000e+000  1.000000e+000  -0.000000e+000
    outer loop
      vertex -1.590000e+001 -1.850000e+001  1.080000e+001
      vertex -1.675505e+001 -1.850000e+001  1.095077e+001
      vertex -1.500000e+001 -1.850000e+001  1.080000e+001
    endloop
  endfacet
  facet normal  1.000000e+000  -0.000000e+000  0.000000e+000
    outer loop
      vertex -1.340000e+001 -1.850000e+001  1.480000e+001
      vertex -1.340000e+001 -2.000000e+001  1.480000e+001
      vertex -1.340000e+001 -1.850000e+001  1.360000e+001
    endloop
  endfacet
  facet normal  1.000000e+000  0.000000e+000  0.000000e+000
    outer loop
      vertex -1.340000e+001 -1.850000e+001  1.360000e+001
      vertex -1.340000e+001 -2.000000e+001  1.480000e+001
      vertex -1.340000e+001 -2.000000e+001  1.360000e+001
    endloop
  endfacet
  facet normal  -0.000000e+000  0.000000e+000  1.000000e+000
    outer loop
      vertex  3.020000e+001 -1.850000e+001  1.360000e+001
      vertex -1.340000e+001 -1.850000e+001  1.360000e+001
      vertex  3.020000e+001 -2.000000e+001  1.360000e+001
    endloop
  endfacet
  facet normal  0.000000e+000  0.000000e+000  1.000000e+000
    outer loop
      vertex  3.020000e+001 -2.000000e+001  1.360000e+001
      vertex -1.340000e+001 -1.850000e+001  1.360000e+001
      vertex -1.340000e+001 -2.000000e+001  1.360000e+001
    endloop
  endfacet
  facet normal -1.000000e+000  0.000000e+000  0.000000e+000
    outer loop
      vertex  3.020000e+001 -1.850000e+001  1.360000e+001
      vertex  3.020000e+001 -2.000000e+001  1.360000e+001
      vertex  3.020000e+001 -1.850000e+001  1.480000e+001
    endloop
  endfacet
  facet normal -1.000000e+000  -0.000000e+000  0.000000e+000
    outer loop
      vertex  3.020000e+001 -1.850000e+001  1.480000e+001
      vertex  3.020000e+001 -2.000000e+001  1.360000e+001
      vertex  3.020000e+001 -2.000000e+001  1.480000e+001
    endloop
  endfacet
  facet normal  -0.000000e+000  0.000000e+000 -1.000000e+000
    outer loop
      vertex -1.340000e+001 -1.850000e+001  1.480000e+001
      vertex  3.020000e+001 -1.850000e+001  1.480000e+001
      vertex -1.340000e+001 -2.000000e+001  1.480000e+001
    endloop
  endfacet
  facet normal  0.000000e+000  0.000000e+000 -1.000000e+000
    outer loop
      vertex -1.340000e+001 -2.000000e+001  1.480000e+001
      vertex  3.020000e+001 -1.850000e+001  1.480000e+001
      vertex  3.020000e+001 -2.000000e+001  1.480000e+001
    endloop
  endfacet
  facet normal  1.000000e+000  -0.000000e+000  0.000000e+000
    outer loop
      vertex -1.340000e+001 -1.850000e+001  1.750000e+001
      vertex -1.340000e+001 -2.000000e+001  1.750000e+001
      vertex -1.340000e+001 -1.850000e+001  1.630000e+001
    endloop
  endfacet
  facet normal  1.000000e+000  0.000000e+000  0.000000e+000
    outer loop
      vertex -1.340000e+001 -1.850000e+001  1.630000e+001
      vertex -1.340000e+001 -2.000000e+001  1.750000e+001
      vertex -1.340000e+001 -2.000000e+001  1.630000e+001
    endloop
  endfacet
  facet normal  -0.000000e+000  0.000000e+000  1.000000e+000
    outer loop
      vertex  3.020000e+001 -1.850000e+001  1.630000e+001
      vertex -1.340000e+001 -1.850000e+001  1.630000e+001
      vertex  3.020000e+001 -2.000000e+001  1.630000e+001
    endloop
  endfacet
  facet normal  0.000000e+000  0.000000e+000  1.000000e+000
    outer loop
      vertex  3.020000e+001 -2.000000e+001  1.630000e+001
      vertex -1.340000e+001 -1.850000e+001  1.630000e+001
      vertex -1.340000e+001 -2.000000e+001  1.630000e+001
    endloop
  endfacet
  facet normal -1.000000e+000  0.000000e+000  0.000000e+000
    outer loop
      vertex  3.020000e+001 -1.850000e+001  1.630000e+001
      vertex  3.020000e+001 -2.000000e+001  1.630000e+001
      vertex  3.020000e+001 -1.850000e+001  1.750000e+001
    endloop
  endfacet
  facet normal -1.000000e+000  -0.000000e+000  0.000000e+000
    outer loop
      vertex  3.020000e+001 -1.850000e+001  1.750000e+001
      vertex  3.020000e+001 -2.000000e+001  1.630000e+001
      vertex  3.020000e+001 -2.000000e+001  1.750000e+001
    endloop
  endfacet
  facet normal  -0.000000e+000  0.000000e+000 -1.000000e+000
    outer loop
      vertex -1.340000e+001 -1.850000e+001  1.750000e+001
      vertex  3.020000e+001 -1.850000e+001  1.750000e+001
      vertex -1.340000e+001 -2.000000e+001  1.750000e+001
    endloop
  endfacet
  facet normal  0.000000e+000  0.000000e+000 -1.000000e+000
    outer loop
      vertex -1.340000e+001 -2.000000e+001  1.750000e+001
      vertex  3.020000e+001 -1.850000e+001  1.750000e+001
      vertex  3.020000e+001 -2.000000e+001  1.750000e+001
    endloop
  endfacet
  facet normal  1.000000e+000  -0.000000e+000  0.000000e+000
    outer loop
      vertex -1.340000e+001 -1.850000e+001  2.020000e+001
      vertex -1.340000e+001 -2.000000e+001  2.020000e+001
      vertex -1.340000e+001 -1.850000e+001  1.900000e+001
    endloop
  endfacet
  facet normal  1.000000e+000  0.000000e+000  0.000000e+000
    outer loop
      vertex -1.340000e+001 -1.850000e+001  1.900000e+001
      vertex -1.340000e+001 -2.000000e+001  2.020000e+001
      vertex -1.340000e+001 -2.000000e+001  1.900000e+001
    endloop
  endfacet
  facet normal  -0.000000e+000  0.000000e+000  1.000000e+000
    outer loop
      vertex  3.020000e+001 -1.850000e+001  1.900000e+001
      vertex -1.340000e+001 -1.850000e+001  1.900000e+001
      vertex  3.020000e+001 -2.000000e+001  1.900000e+001
    endloop
  endfacet
  facet normal  0.000000e+000  0.000000e+000  1.000000e+000
    outer loop
      vertex  3.020000e+001 -2.000000e+001  1.900000e+001
      vertex -1.340000e+001 -1.850000e+001  1.900000e+001
      vertex -1.340000e+001 -2.000000e+001  1.900000e+001
    endloop
  endfacet
  facet normal -1.000000e+000  0.000000e+000  0.000000e+000
    outer loop
      vertex  3.020000e+001 -1.850000e+001  1.900000e+001
      vertex  3.020000e+001 -2.000000e+001  1.900000e+001
      vertex  3.020000e+001 -1.850000e+001  2.020000e+001
    endloop
  endfacet
  facet normal -1.000000e+000  -0.000000e+000  0.000000e+000
    outer loop
      vertex  3.020000e+001 -1.850000e+001  2.020000e+001
      vertex  3.020000e+001 -2.000000e+001  1.900000e+001
      vertex  3.020000e+001 -2.000000e+001  2.020000e+001
    endloop
  endfacet
  facet normal  -0.000000e+000  0.000000e+000 -1.000000e+000
    outer loop
      vertex -1.340000e+001 -1.850000e+001  2.020000e+001
      vertex  3.020000e+001 -1.850000e+001  2.020000e+001
      vertex -1.340000e+001 -2.000000e+001  2.020000e+001
    endloop
  endfacet
  facet normal  0.000000e+000  0.000000e+000 -1.000000e+000
    outer loop
      vertex -1.340000e+001 -2.000000e+001  2.020000e+001
      vertex  3.020000e+001 -1.850000e+001  2.020000e+001
      vertex  3.020000e+001 -2.000000e+001  2.020000e+001
    endloop
  endfacet
  facet normal  9.999999e-001  -0.000000e+000  0.000000e+000
    outer loop
      vertex -1.340000e+001 -1.850000e+001  2.290000e+001
      vertex -1.340000e+001 -2.000000e+001  2.290000e+001
      vertex -1.340000e+001 -1.850000e+001  2.170000e+001
    endloop
  endfacet
  facet normal  9.999999e-001  0.000000e+000  0.000000e+000
    outer loop
      vertex -1.340000e+001 -1.850000e+001  2.170000e+001
      vertex -1.340000e+001 -2.000000e+001  2.290000e+001
      vertex -1.340000e+001 -2.000000e+001  2.170000e+001
    endloop
  endfacet
  facet normal  -0.000000e+000  0.000000e+000  1.000000e+000
    outer loop
      vertex  3.020000e+001 -1.850000e+001  2.170000e+001
      vertex -1.340000e+001 -1.850000e+001  2.170000e+001
      vertex  3.020000e+001 -2.000000e+001  2.170000e+001
    endloop
  endfacet
  facet normal  0.000000e+000  0.000000e+000  1.000000e+000
    outer loop
      vertex  3.020000e+001 -2.000000e+001  2.170000e+001
      vertex -1.340000e+001 -1.850000e+001  2.170000e+001
      vertex -1.340000e+001 -2.000000e+001  2.170000e+001
    endloop
  endfacet
  facet normal -9.999999e-001  0.000000e+000  0.000000e+000
    outer loop
      vertex  3.020000e+001 -1.850000e+001  2.170000e+001
      vertex  3.020000e+001 -2.000000e+001  2.170000e+001
      vertex  3.020000e+001 -1.850000e+001  2.290000e+001
    endloop
  endfacet
  facet normal -9.999999e-001  -0.000000e+000  0.000000e+000
    outer loop
      vertex  3.020000e+001 -1.850000e+001  2.290000e+001
      vertex  3.020000e+001 -2.000000e+001  2.170000e+001
      vertex  3.020000e+001 -2.000000e+001  2.290000e+001
    endloop
  endfacet
  facet normal  -0.000000e+000  0.000000e+000 -1.000000e+000
    outer loop
      vertex -1.340000e+001 -1.850000e+001  2.290000e+001
      vertex  3.020000e+001 -1.850000e+001  2.290000e+001
      vertex -1.340000e+001 -2.000000e+001  2.290000e+001
    endloop
  endfacet
  facet normal  0.000000e+000  0.000000e+000 -1.000000e+000
    outer loop
      vertex -1.340000e+001 -2.000000e+001  2.290000e+001
      vertex  3.020000e+001 -1.850000e+001  2.290000e+001
      vertex  3.020000e+001 -2.000000e+001  2.290000e+001
    endloop
  endfacet
  facet normal  1.000000e+000  -0.000000e+000  0.000000e+000
    outer loop
      vertex -1.340000e+001 -1.850000e+001  2.560000e+001
      vertex -1.340000e+001 -2.000000e+001  2.560000e+001
      vertex -1.340000e+001 -1.850000e+001  2.440000e+001
    endloop
  endfacet
  facet normal  1.000000e+000  0.000000e+000  0.000000e+000
    outer loop
      vertex -1.340000e+001 -1.850000e+001  2.440000e+001
      vertex -1.340000e+001 -2.000000e+001  2.560000e+001
      vertex -1.340000e+001 -2.000000e+001  2.440000e+001
    endloop
  endfacet
  facet normal  -0.000000e+000  0.000000e+000  1.000000e+000
    outer loop
      vertex  3.020000e+001 -1.850000e+001  2.440000e+001
      vertex -1.340000e+001 -1.850000e+001  2.440000e+001
      vertex  3.020000e+001 -2.000000e+001  2.440000e+001
    endloop
  endfacet
  facet normal  0.000000e+000  0.000000e+000  1.000000e+000
    outer loop
      vertex  3.020000e+001 -2.000000e+001  2.440000e+001
      vertex -1.340000e+001 -1.850000e+001  2.440000e+001
      vertex -1.340000e+001 -2.000000e+001  2.440000e+001
    endloop
  endfacet
  facet normal -1.000000e+000  0.000000e+000  0.000000e+000
    outer loop
      vertex  3.020000e+001 -1.850000e+001  2.440000e+001
      vertex  3.020000e+001 -2.000000e+001  2.440000e+001
      vertex  3.020000e+001 -1.850000e+001  2.560000e+001
    endloop
  endfacet
  facet normal -1.000000e+000  -0.000000e+000  0.000000e+000
    outer loop
      vertex  3.020000e+001 -1.850000e+001  2.560000e+001
      vertex  3.020000e+001 -2.000000e+001  2.440000e+001
      vertex  3.020000e+001 -2.000000e+001  2.560000e+001
    endloop
  endfacet
  facet normal  -0.000000e+000  0.000000e+000 -1.000000e+000
    outer loop
      vertex -1.340000e+001 -1.850000e+001  2.560000e+001
      vertex  3.020000e+001 -1.850000e+001  2.560000e+001
      vertex -1.340000e+001 -2.000000e+001  2.560000e+001
    endloop
  endfacet
  facet normal  0.000000e+000  0.000000e+000 -1.000000e+000
    outer loop
      vertex -1.340000e+001 -2.000000e+001  2.560000e+001
      vertex  3.020000e+001 -1.850000e+001  2.560000e+001
      vertex  3.020000e+001 -2.000000e+001  2.560000e+001
    endloop
  endfacet
  facet normal  9.999999e-001  -0.000000e+000  0.000000e+000
    outer loop
      vertex -1.340000e+001 -1.850000e+001  2.830000e+001
      vertex -1.340000e+001 -2.000000e+001  2.830000e+001
      vertex -1.340000e+001 -1.850000e+001  2.710000e+001
    endloop
  endfacet
  facet normal  9.999999e-001  0.000000e+000  0.000000e+000
    outer loop
      vertex -1.340000e+001 -1.850000e+001  2.710000e+001
      vertex -1.340000e+001 -2.000000e+001  2.830000e+001
      vertex -1.340000e+001 -2.000000e+001  2.710000e+001
    endloop
  endfacet
  facet normal  -0.000000e+000  0.000000e+000  1.000000e+000
    outer loop
      vertex  3.020000e+001 -1.850000e+001  2.710000e+001
      vertex -1.340000e+001 -1.850000e+001  2.710000e+001
      vertex  3.020000e+001 -2.000000e+001  2.710000e+001
    endloop
  endfacet
  facet normal  0.000000e+000  0.000000e+000  1.000000e+000
    outer loop
      vertex  3.020000e+001 -2.000000e+001  2.710000e+001
      vertex -1.340000e+001 -1.850000e+001  2.710000e+001
      vertex -1.340000e+001 -2.000000e+001  2.710000e+001
    endloop
  endfacet
  facet normal -9.999999e-001  0.000000e+000  0.000000e+000
    outer loop
      vertex  3.020000e+001 -1.850000e+001  2.710000e+001
      vertex  3.020000e+001 -2.000000e+001  2.710000e+001
      vertex  3.020000e+001 -1.850000e+001  2.830000e+001
    endloop
  endfacet
  facet normal -9.999999e-001  -0.000000e+000  0.000000e+000
    outer loop
      vertex  3.020000e+001 -1.850000e+001  2.830000e+001
      vertex  3.020000e+001 -2.000000e+001  2.710000e+001
      vertex  3.020000e+001 -2.000000e+001  2.830000e+001
    endloop
  endfacet
  facet normal  -0.000000e+000  0.000000e+000 -1.000000e+000
    outer loop
      vertex -1.340000e+001 -1.850000e+001  2.830000e+001
      vertex  3.020000e+001 -1.850000e+001  2.830000e+001
      vertex -1.340000e+001 -2.000000e+001  2.830000e+001
    endloop
  endfacet
  facet normal  0.000000e+000  0.000000e+000 -1.000000e+000
    outer loop
      vertex -1.340000e+001 -2.000000e+001  2.830000e+001
      vertex  3.020000e+001 -1.850000e+001  2.830000e+001
      vertex  3.020000e+001 -2.000000e+001  2.830000e+001
    endloop
  endfacet
  facet normal  1.000000e+000  -0.000000e+000  0.000000e+000
    outer loop
      vertex -1.340000e+001 -1.850000e+001  3.100000e+001
      vertex -1.340000e+001 -2.000000e+001  3.100000e+001
      vertex -1.340000e+001 -1.850000e+001  2.980000e+001
    endloop
  endfacet
  facet normal  1.000000e+000  0.000000e+000  0.000000e+000
    outer loop
      vertex -1.340000e+001 -1.850000e+001  2.980000e+001
      vertex -1.340000e+001 -2.000000e+001  3.100000e+001
      vertex -1.340000e+001 -2.000000e+001  2.980000e+001
    endloop
  endfacet
  facet normal  -0.000000e+000  0.000000e+000  1.000000e+000
    outer loop
      vertex  3.020000e+001 -1.850000e+001  2.980000e+001
      vertex -1.340000e+001 -1.850000e+001  2.980000e+001
      vertex  3.020000e+001 -2.000000e+001  2.980000e+001
    endloop
  endfacet
  facet normal  0.000000e+000  0.000000e+000  1.000000e+000
    outer loop
      vertex  3.020000e+001 -2.000000e+001  2.980000e+001
      vertex -1.340000e+001 -1.850000e+001  2.980000e+001
      vertex -1.340000e+001 -2.000000e+001  2.980000e+001
    endloop
  endfacet
  facet normal -1.000000e+000  0.000000e+000  0.000000e+000
    outer loop
      vertex  3.020000e+001 -1.850000e+001  2.980000e+001
      vertex  3.020000e+001 -2.000000e+001  2.980000e+001
      vertex  3.020000e+001 -1.850000e+001  3.100000e+001
    endloop
  endfacet
  facet normal -1.000000e+000  -0.000000e+000  0.000000e+000
    outer loop
      vertex  3.020000e+001 -1.850000e+001  3.100000e+001
      vertex  3.020000e+001 -2.000000e+001  2.980000e+001
      vertex  3.020000e+001 -2.000000e+001  3.100000e+001
    endloop
  endfacet
  facet normal  -0.000000e+000  0.000000e+000 -1.000000e+000
    outer loop
      vertex -1.340000e+001 -1.850000e+001  3.100000e+001
      vertex  3.020000e+001 -1.850000e+001  3.100000e+001
      vertex -1.340000e+001 -2.000000e+001  3.100000e+001
    endloop
  endfacet
  facet normal  0.000000e+000  0.000000e+000 -1.000000e+000
    outer loop
      vertex -1.340000e+001 -2.000000e+001  3.100000e+001
      vertex  3.020000e+001 -1.850000e+001  3.100000e+001
      vertex  3.020000e+001 -2.000000e+001  3.100000e+001
    endloop
  endfacet
  facet normal  1.000000e+000  -0.000000e+000  0.000000e+000
    outer loop
      vertex -1.340000e+001 -1.850000e+001  3.370000e+001
      vertex -1.340000e+001 -2.000000e+001  3.370000e+001
      vertex -1.340000e+001 -1.850000e+001  3.250000e+001
    endloop
  endfacet
  facet normal  1.000000e+000  0.000000e+000  0.000000e+000
    outer loop
      vertex -1.340000e+001 -1.850000e+001  3.250000e+001
      vertex -1.340000e+001 -2.000000e+001  3.370000e+001
      vertex -1.340000e+001 -2.000000e+001  3.250000e+001
    endloop
  endfacet
  facet normal  -0.000000e+000  0.000000e+000  1.000000e+000
    outer loop
      vertex  3.020000e+001 -1.850000e+001  3.250000e+001
      vertex -1.340000e+001 -1.850000e+001  3.250000e+001
      vertex  3.020000e+001 -2.000000e+001  3.250000e+001
    endloop
  endfacet
  facet normal  0.000000e+000  0.000000e+000  1.000000e+000
    outer loop
      vertex  3.020000e+001 -2.000000e+001  3.250000e+001
      vertex -1.340000e+001 -1.850000e+001  3.250000e+001
      vertex -1.340000e+001 -2.000000e+001  3.250000e+001
    endloop
  endfacet
  facet normal -1.000000e+000  0.000000e+000  0.000000e+000
    outer loop
      vertex  3.020000e+001 -1.850000e+001  3.250000e+001
      vertex  3.020000e+001 -2.000000e+001  3.250000e+001
      vertex  3.020000e+001 -1.850000e+001  3.370000e+001
    endloop
  endfacet
  facet normal -1.000000e+000  -0.000000e+000  0.000000e+000
    outer loop
      vertex  3.020000e+001 -1.850000e+001  3.370000e+001
      vertex  3.020000e+001 -2.000000e+001  3.250000e+001
      vertex  3.020000e+001 -2.000000e+001  3.370000e+001
    endloop
  endfacet
  facet normal  -0.000000e+000  0.000000e+000 -1.000000e+000
    outer loop
      vertex -1.340000e+001 -1.850000e+001  3.370000e+001
      vertex  3.020000e+001 -1.850000e+001  3.370000e+001
      vertex -1.340000e+001 -2.000000e+001  3.370000e+001
    endloop
  endfacet
  facet normal  0.000000e+000  0.000000e+000 -1.000000e+000
    outer loop
      vertex -1.340000e+001 -2.000000e+001  3.370000e+001
      vertex  3.020000e+001 -1.850000e+001  3.370000e+001
      vertex  3.020000e+001 -2.000000e+001  3.370000e+001
    endloop
  endfacet
  facet normal  1.000000e+000  -0.000000e+000  0.000000e+000
    outer loop
      vertex -1.340000e+001 -1.850000e+001  3.640000e+001
      vertex -1.340000e+001 -2.000000e+001  3.640000e+001
      vertex -1.340000e+001 -1.850000e+001  3.520000e+001
    endloop
  endfacet
  facet normal  1.000000e+000  0.000000e+000  0.000000e+000
    outer loop
      vertex -1.340000e+001 -1.850000e+001  3.520000e+001
      vertex -1.340000e+001 -2.000000e+001  3.640000e+001
      vertex -1.340000e+001 -2.000000e+001  3.520000e+001
    endloop
  endfacet
  facet normal  -0.000000e+000  0.000000e+000  1.000000e+000
    outer loop
      vertex  3.020000e+001 -1.850000e+001  3.520000e+001
      vertex -1.340000e+001 -1.850000e+001  3.520000e+001
      vertex  3.020000e+001 -2.000000e+001  3.520000e+001
    endloop
  endfacet
  facet normal  0.000000e+000  0.000000e+000  1.000000e+000
    outer loop
      vertex  3.020000e+001 -2.000000e+001  3.520000e+001
      vertex -1.340000e+001 -1.850000e+001  3.520000e+001
      vertex -1.340000e+001 -2.000000e+001  3.520000e+001
    endloop
  endfacet
  facet normal -1.000000e+000  0.000000e+000  0.000000e+000
    outer loop
      vertex  3.020000e+001 -1.850000e+001  3.520000e+001
      vertex  3.020000e+001 -2.000000e+001  3.520000e+001
      vertex  3.020000e+001 -1.850000e+001  3.640000e+001
    endloop
  endfacet
  facet normal -1.000000e+000  -0.000000e+000  0.000000e+000
    outer loop
      vertex  3.020000e+001 -1.850000e+001  3.640000e+001
      vertex  3.020000e+001 -2.000000e+001  3.520000e+001
      vertex  3.020000e+001 -2.000000e+001  3.640000e+001
    endloop
  endfacet
  facet normal  -0.000000e+000  0.000000e+000 -1.000000e+000
    outer loop
      vertex -1.340000e+001 -1.850000e+001  3.640000e+001
      vertex  3.020000e+001 -1.850000e+001  3.640000e+001
      vertex -1.340000e+001 -2.000000e+001  3.640000e+001
    endloop
  endfacet
  facet normal  0.000000e+000  0.000000e+000 -1.000000e+000
    outer loop
      vertex -1.340000e+001 -2.000000e+001  3.640000e+001
      vertex  3.020000e+001 -1.850000e+001  3.640000e+001
      vertex  3.020000e+001 -2.000000e+001  3.640000e+001
    endloop
  endfacet
  facet normal  8.749988e-002  -0.000000e+000  9.961646e-001
    outer loop
      vertex  3.170000e+001 -1.850000e+001  3.840000e+001
      vertex  3.170000e+001 -2.000000e+001  3.840000e+001
      vertex  3.213581e+001 -1.850000e+001  3.836172e+001
    endloop
  endfacet
  facet normal  8.749988e-002  0.000000e+000  9.961646e-001
    outer loop
      vertex  3.213581e+001 -1.850000e+001  3.836172e+001
      vertex  3.170000e+001 -2.000000e+001  3.840000e+001
      vertex  3.213581e+001 -2.000000e+001  3.836172e+001
    endloop
  endfacet
  facet normal  2.598149e-001  -0.000000e+000  9.656584e-001
    outer loop
      vertex  3.213581e+001 -1.850000e+001  3.836172e+001
      vertex  3.213581e+001 -2.000000e+001  3.836172e+001
      vertex  3.255828e+001 -1.850000e+001  3.824805e+001
    endloop
  endfacet
  facet normal  2.598149e-001  0.000000e+000  9.656584e-001
    outer loop
      vertex  3.255828e+001 -1.850000e+001  3.824805e+001
      vertex  3.213581e+001 -2.000000e+001  3.836172e+001
      vertex  3.255828e+001 -2.000000e+001  3.824805e+001
    endloop
  endfacet
  facet normal  4.241768e-001  -0.000000e+000  9.055794e-001
    outer loop
      vertex  3.255828e+001 -1.850000e+001  3.824805e+001
      vertex  3.255828e+001 -2.000000e+001  3.824805e+001
      vertex  3.295446e+001 -1.850000e+001  3.806248e+001
    endloop
  endfacet
  facet normal  4.241768e-001  0.000000e+000  9.055794e-001
    outer loop
      vertex  3.295446e+001 -1.850000e+001  3.806248e+001
      vertex  3.255828e+001 -2.000000e+001  3.824805e+001
      vertex  3.295446e+001 -2.000000e+001  3.806248e+001
    endloop
  endfacet
  facet normal  5.755444e-001  -0.000000e+000  8.177705e-001
    outer loop
      vertex  3.295446e+001 -1.850000e+001  3.806248e+001
      vertex  3.295446e+001 -2.000000e+001  3.806248e+001
      vertex  3.331223e+001 -1.850000e+001  3.781068e+001
    endloop
  endfacet
  facet normal  5.755444e-001  0.000000e+000  8.177705e-001
    outer loop
      vertex  3.331223e+001 -1.850000e+001  3.781068e+001
      vertex  3.295446e+001 -2.000000e+001  3.806248e+001
      vertex  3.331223e+001 -2.000000e+001  3.781068e+001
    endloop
  endfacet
  facet normal  -0.000000e+000  0.000000e+000  1.000000e+000
    outer loop
      vertex  3.520000e+001 -1.850000e+001  3.781068e+001
      vertex  3.331223e+001 -1.850000e+001  3.781068e+001
      vertex  3.520000e+001 -2.000000e+001  3.781068e+001
    endloop
  endfacet
  facet normal  0.000000e+000  0.000000e+000  1.000000e+000
    outer loop
      vertex  3.520000e+001 -2.000000e+001  3.781068e+001
      vertex  3.331223e+001 -1.850000e+001  3.781068e+001
      vertex  3.331223e+001 -2.000000e+001  3.781068e+001
    endloop
  endfacet
  facet normal  1.000000e+000  0.000000e+000  0.000000e+000
    outer loop
      vertex  3.520000e+001 -1.850000e+001  9.800000e+000
      vertex  3.520000e+001 -1.850000e+001  3.781068e+001
      vertex  3.520000e+001 -2.000000e+001  9.800000e+000
    endloop
  endfacet
  facet normal  1.000000e+000  0.000000e+000  0.000000e+000
    outer loop
      vertex  3.520000e+001 -2.000000e+001  9.800000e+000
      vertex  3.520000e+001 -1.850000e+001  3.781068e+001
      vertex  3.520000e+001 -2.000000e+001  3.781068e+001
    endloop
  endfacet
endsolid CATIA STL
